<?xml version="1.0" standalone="no"?>
<!DOCTYPE svg PUBLIC "-//W3C//DTD SVG 1.1//EN" "http://www.w3.org/Graphics/SVG/1.1/DTD/svg11.dtd" >
<svg xmlns="http://www.w3.org/2000/svg" xmlns:xlink="http://www.w3.org/1999/xlink" version="1.1">
<metadata>
Created by FontForge 20170924 at Tue Jan 14 20:10:56 2020
 By www-data
Copyright \(c\) 2020 by MARSNEV. All rights reserved.
</metadata>
<defs>
<font id="LEMONMILK-Bold" horiz-adv-x="0" >
  <font-face 
    font-family="LEMON MILK Bold"
    font-weight="700"
    font-stretch="normal"
    units-per-em="2048"
    panose-1="0 0 8 0 0 0 0 0 0 0"
    ascent="1638"
    descent="-410"
    cap-height="1612"
    bbox="-1222 -618 2681 2203"
    underline-thickness="50"
    underline-position="-100"
    stemh="408"
    stemv="428"
    unicode-range="U+0020-3000"
  />
<missing-glyph horiz-adv-x="1332" 
d="M200 0v1612h932v-1612h-932zM360 145h614v1321h-614v-1321z" />
    <glyph glyph-name=".notdef" horiz-adv-x="1332" 
d="M200 0v1612h932v-1612h-932zM360 145h614v1321h-614v-1321z" />
    <glyph glyph-name="space" unicode=" " horiz-adv-x="625" 
 />
    <glyph glyph-name="A" unicode="A" horiz-adv-x="1744" 
d="M1254 0l-81 188h-602l-82 -188h-468l749 1632h203l750 -1632h-469zM706 501h331l-165 382z" />
    <glyph glyph-name="A" unicode="a" horiz-adv-x="1744" 
d="M1254 0l-81 188h-602l-82 -188h-468l749 1632h203l750 -1632h-469zM706 501h331l-165 382z" />
    <glyph glyph-name="Aacute" unicode="&#xc1;" horiz-adv-x="1744" 
d="M1210 2082l-238 -337h-269l172 337h335zM1254 0l-81 188h-602l-82 -188h-468l749 1632h203l750 -1632h-469zM706 501h331l-165 382z" />
    <glyph glyph-name="Aacute" unicode="&#xe1;" horiz-adv-x="1744" 
d="M1210 2082l-238 -337h-269l172 337h335zM1254 0l-81 188h-602l-82 -188h-468l749 1632h203l750 -1632h-469zM706 501h331l-165 382z" />
    <glyph glyph-name="Abreve" unicode="&#x102;" horiz-adv-x="1744" 
d="M872 1753c-184 0 -322 130 -322 301h192c0 -76 56 -134 130 -134s131 58 131 134h192c0 -171 -139 -301 -323 -301zM1254 0l-81 188h-602l-82 -188h-468l749 1632h203l750 -1632h-469zM706 501h331l-165 382z" />
    <glyph glyph-name="Abreve" unicode="&#x103;" horiz-adv-x="1744" 
d="M872 1753c-184 0 -322 130 -322 301h192c0 -76 56 -134 130 -134s131 58 131 134h192c0 -171 -139 -301 -323 -301zM1254 0l-81 188h-602l-82 -188h-468l749 1632h203l750 -1632h-469zM706 501h331l-165 382z" />
    <glyph glyph-name="Acircumflex" unicode="&#xc2;" horiz-adv-x="1744" 
d="M871 1889l-127 -130h-304l311 293h239l315 -293h-307zM1254 0l-81 188h-602l-82 -188h-468l749 1632h203l750 -1632h-469zM706 501h331l-165 382z" />
    <glyph glyph-name="Acircumflex" unicode="&#xe2;" horiz-adv-x="1744" 
d="M871 1889l-127 -130h-304l311 293h239l315 -293h-307zM1254 0l-81 188h-602l-82 -188h-468l749 1632h203l750 -1632h-469zM706 501h331l-165 382z" />
    <glyph glyph-name="Adieresis" unicode="&#xc4;" horiz-adv-x="1744" 
d="M632 1761c-81 0 -148 62 -148 137c0 74 67 139 148 139c79 0 146 -65 146 -139c0 -75 -67 -137 -146 -137zM1113 1761c-80 0 -146 62 -146 137c0 74 67 139 146 139c81 0 148 -65 148 -139c0 -75 -67 -137 -148 -137zM1254 0l-81 188h-602l-82 -188h-468l749 1632h203
l750 -1632h-469zM706 501h331l-165 382z" />
    <glyph glyph-name="Adieresis" unicode="&#xe4;" horiz-adv-x="1744" 
d="M632 1761c-81 0 -148 62 -148 137c0 74 67 139 148 139c79 0 146 -65 146 -139c0 -75 -67 -137 -146 -137zM1113 1761c-80 0 -146 62 -146 137c0 74 67 139 146 139c81 0 148 -65 148 -139c0 -75 -67 -137 -148 -137zM1254 0l-81 188h-602l-82 -188h-468l749 1632h203
l750 -1632h-469zM706 501h331l-165 382z" />
    <glyph glyph-name="Agrave" unicode="&#xc0;" horiz-adv-x="1744" 
d="M1126 1745h-269l-238 337h335zM1254 0l-81 188h-602l-82 -188h-468l749 1632h203l750 -1632h-469zM706 501h331l-165 382z" />
    <glyph glyph-name="Agrave" unicode="&#xe0;" horiz-adv-x="1744" 
d="M1126 1745h-269l-238 337h335zM1254 0l-81 188h-602l-82 -188h-468l749 1632h203l750 -1632h-469zM706 501h331l-165 382z" />
    <glyph glyph-name="Amacron" unicode="&#x100;" horiz-adv-x="1744" 
d="M1200 2002v-201h-655v201h655zM1254 0l-81 188h-602l-82 -188h-468l749 1632h203l750 -1632h-469zM706 501h331l-165 382z" />
    <glyph glyph-name="Amacron" unicode="&#x101;" horiz-adv-x="1744" 
d="M1200 2002v-201h-655v201h655zM1254 0l-81 188h-602l-82 -188h-468l749 1632h203l750 -1632h-469zM706 501h331l-165 382z" />
    <glyph glyph-name="Aogonek" unicode="&#x104;" horiz-adv-x="1744" 
d="M1524 -297c22 0 67 6 119 19l39 -270c-71 -15 -135 -22 -193 -22c-209 0 -321 93 -321 249c0 140 91 258 214 321h-128l-81 188h-602l-82 -188h-468l749 1632h203l750 -1632h-60c-138 -102 -197 -163 -197 -232c0 -34 17 -65 58 -65zM706 501h331l-165 382z" />
    <glyph glyph-name="Aogonek" unicode="&#x105;" horiz-adv-x="1744" 
d="M1524 -297c22 0 67 6 119 19l39 -270c-71 -15 -135 -22 -193 -22c-209 0 -321 93 -321 249c0 140 91 258 214 321h-128l-81 188h-602l-82 -188h-468l749 1632h203l750 -1632h-60c-138 -102 -197 -163 -197 -232c0 -34 17 -65 58 -65zM706 501h331l-165 382z" />
    <glyph glyph-name="Aring" unicode="&#xc5;" horiz-adv-x="1744" 
d="M873 1707c-133 0 -243 105 -243 234c0 128 110 234 243 234c131 0 241 -107 241 -234s-110 -234 -241 -234zM873 2026c-50 0 -90 -39 -90 -87c0 -47 40 -85 90 -85c49 0 89 38 89 85c0 48 -40 87 -89 87zM1254 0l-81 188h-602l-82 -188h-468l749 1632h203l750 -1632h-469
zM706 501h331l-165 382z" />
    <glyph glyph-name="Aring" unicode="&#xe5;" horiz-adv-x="1744" 
d="M873 1707c-133 0 -243 105 -243 234c0 128 110 234 243 234c131 0 241 -107 241 -234s-110 -234 -241 -234zM873 2026c-50 0 -90 -39 -90 -87c0 -47 40 -85 90 -85c49 0 89 38 89 85c0 48 -40 87 -89 87zM1254 0l-81 188h-602l-82 -188h-468l749 1632h203l750 -1632h-469
zM706 501h331l-165 382z" />
    <glyph glyph-name="Atilde" unicode="&#xc3;" horiz-adv-x="1744" 
d="M717 1894c-57 0 -83 -56 -99 -125l-195 60c42 209 178 268 292 268c167 0 225 -129 313 -129c55 0 82 55 99 124l194 -60c-43 -214 -184 -268 -292 -268c-168 0 -223 130 -312 130zM1254 0l-81 188h-602l-82 -188h-468l749 1632h203l750 -1632h-469zM706 501h331
l-165 382z" />
    <glyph glyph-name="Atilde" unicode="&#xe3;" horiz-adv-x="1744" 
d="M717 1894c-57 0 -83 -56 -99 -125l-195 60c42 209 178 268 292 268c167 0 225 -129 313 -129c55 0 82 55 99 124l194 -60c-43 -214 -184 -268 -292 -268c-168 0 -223 130 -312 130zM1254 0l-81 188h-602l-82 -188h-468l749 1632h203l750 -1632h-469zM706 501h331
l-165 382z" />
    <glyph glyph-name="AE" unicode="&#xc6;" horiz-adv-x="2200" 
d="M2102 1214h-622v-225h512v-357h-512v-231h622v-401h-1045v232h-461l-113 -232h-462l781 1612h1300v-398zM769 589h288v592z" />
    <glyph glyph-name="AE" unicode="&#xe6;" horiz-adv-x="2200" 
d="M2102 1214h-622v-225h512v-357h-512v-231h622v-401h-1045v232h-461l-113 -232h-462l781 1612h1300v-398zM769 589h288v592z" />
    <glyph glyph-name="B" unicode="B" horiz-adv-x="1407" 
d="M1000 908c172 0 365 -173 365 -416c0 -255 -214 -492 -537 -492h-688v1612h530c292 0 506 -197 506 -419c0 -166 -110 -285 -176 -285zM817 1116c0 78 -68 124 -160 124h-105v-253h102c93 0 163 46 163 129zM763 389c98 0 192 48 192 154c0 94 -68 151 -189 151l-214 1
v-306h211z" />
    <glyph glyph-name="B" unicode="b" horiz-adv-x="1407" 
d="M1000 908c172 0 365 -173 365 -416c0 -255 -214 -492 -537 -492h-688v1612h530c292 0 506 -197 506 -419c0 -166 -110 -285 -176 -285zM817 1116c0 78 -68 124 -160 124h-105v-253h102c93 0 163 46 163 129zM763 389c98 0 192 48 192 154c0 94 -68 151 -189 151l-214 1
v-306h211z" />
    <glyph glyph-name="C" unicode="C" horiz-adv-x="1596" 
d="M950 -36c-455 0 -880 336 -880 842c0 477 386 844 888 844c208 -3 431 -94 596 -244l-246 -316c-99 90 -230 149 -349 149c-248 0 -455 -189 -455 -436c0 -250 216 -434 446 -434c135 0 256 64 360 157l244 -325c-154 -140 -359 -237 -604 -237z" />
    <glyph glyph-name="C" unicode="c" horiz-adv-x="1596" 
d="M950 -36c-455 0 -880 336 -880 842c0 477 386 844 888 844c208 -3 431 -94 596 -244l-246 -316c-99 90 -230 149 -349 149c-248 0 -455 -189 -455 -436c0 -250 216 -434 446 -434c135 0 256 64 360 157l244 -325c-154 -140 -359 -237 -604 -237z" />
    <glyph glyph-name="Cacute" unicode="&#x106;" horiz-adv-x="1596" 
d="M975 1742h-269l172 337h335zM950 -36c-455 0 -880 336 -880 842c0 477 386 844 888 844c208 -3 431 -94 596 -244l-246 -316c-99 90 -230 149 -349 149c-248 0 -455 -189 -455 -436c0 -250 216 -434 446 -434c135 0 256 64 360 157l244 -325
c-154 -140 -359 -237 -604 -237z" />
    <glyph glyph-name="Cacute" unicode="&#x107;" horiz-adv-x="1596" 
d="M975 1742h-269l172 337h335zM950 -36c-455 0 -880 336 -880 842c0 477 386 844 888 844c208 -3 431 -94 596 -244l-246 -316c-99 90 -230 149 -349 149c-248 0 -455 -189 -455 -436c0 -250 216 -434 446 -434c135 0 256 64 360 157l244 -325
c-154 -140 -359 -237 -604 -237z" />
    <glyph glyph-name="Ccaron" unicode="&#x10c;" horiz-adv-x="1596" 
d="M442 2049h304l127 -130l127 130h307l-315 -293h-239zM950 -36c-455 0 -880 336 -880 842c0 477 386 844 888 844c208 -3 431 -94 596 -244l-246 -316c-99 90 -230 149 -349 149c-248 0 -455 -189 -455 -436c0 -250 216 -434 446 -434c135 0 256 64 360 157l244 -325
c-154 -140 -359 -237 -604 -237z" />
    <glyph glyph-name="Ccaron" unicode="&#x10d;" horiz-adv-x="1596" 
d="M442 2049h304l127 -130l127 130h307l-315 -293h-239zM950 -36c-455 0 -880 336 -880 842c0 477 386 844 888 844c208 -3 431 -94 596 -244l-246 -316c-99 90 -230 149 -349 149c-248 0 -455 -189 -455 -436c0 -250 216 -434 446 -434c135 0 256 64 360 157l244 -325
c-154 -140 -359 -237 -604 -237z" />
    <glyph glyph-name="Ccedilla" unicode="&#xc7;" horiz-adv-x="1596" 
d="M1554 201c-145 -132 -336 -226 -564 -236l-43 -52c9 0 15 1 24 1c90 0 160 -74 160 -170c0 -166 -201 -320 -442 -318l-99 231c194 -1 266 34 266 77c0 17 -10 46 -63 46c-13 0 -29 -2 -49 -7l-47 60l114 142c-399 60 -741 377 -741 831c0 477 386 844 888 844
c208 -3 431 -94 596 -244l-246 -316c-99 90 -230 149 -349 149c-248 0 -455 -189 -455 -436c0 -250 216 -434 446 -434c135 0 256 64 360 157z" />
    <glyph glyph-name="Ccedilla" unicode="&#xe7;" horiz-adv-x="1596" 
d="M1554 201c-145 -132 -336 -226 -564 -236l-43 -52c9 0 15 1 24 1c90 0 160 -74 160 -170c0 -166 -201 -320 -442 -318l-99 231c194 -1 266 34 266 77c0 17 -10 46 -63 46c-13 0 -29 -2 -49 -7l-47 60l114 142c-399 60 -741 377 -741 831c0 477 386 844 888 844
c208 -3 431 -94 596 -244l-246 -316c-99 90 -230 149 -349 149c-248 0 -455 -189 -455 -436c0 -250 216 -434 446 -434c135 0 256 64 360 157z" />
    <glyph glyph-name="Cdotaccent" unicode="&#x10a;" horiz-adv-x="1596" 
d="M875 1756c-94 0 -169 71 -169 157s76 161 169 161s170 -75 170 -160c0 -88 -78 -158 -170 -158zM950 -36c-455 0 -880 336 -880 842c0 477 386 844 888 844c208 -3 431 -94 596 -244l-246 -316c-99 90 -230 149 -349 149c-248 0 -455 -189 -455 -436
c0 -250 216 -434 446 -434c135 0 256 64 360 157l244 -325c-154 -140 -359 -237 -604 -237z" />
    <glyph glyph-name="Cdotaccent" unicode="&#x10b;" horiz-adv-x="1596" 
d="M875 1756c-94 0 -169 71 -169 157s76 161 169 161s170 -75 170 -160c0 -88 -78 -158 -170 -158zM950 -36c-455 0 -880 336 -880 842c0 477 386 844 888 844c208 -3 431 -94 596 -244l-246 -316c-99 90 -230 149 -349 149c-248 0 -455 -189 -455 -436
c0 -250 216 -434 446 -434c135 0 256 64 360 157l244 -325c-154 -140 -359 -237 -604 -237z" />
    <glyph glyph-name="D" unicode="D" horiz-adv-x="1619" 
d="M666 1612c548 2 883 -304 883 -808c0 -500 -335 -804 -883 -804h-526v1611zM659 403c286 0 461 152 461 402c0 253 -176 407 -465 407h-98v-809h102z" />
    <glyph glyph-name="D" unicode="d" horiz-adv-x="1619" 
d="M666 1612c548 2 883 -304 883 -808c0 -500 -335 -804 -883 -804h-526v1611zM659 403c286 0 461 152 461 402c0 253 -176 407 -465 407h-98v-809h102z" />
    <glyph glyph-name="Eth" unicode="&#xd0;" horiz-adv-x="1697" 
d="M745 1612c548 2 882 -304 882 -808c0 -500 -334 -804 -882 -804h-526v669h-177v260h177v682zM737 403c287 0 461 152 461 402c0 253 -175 407 -464 407h-98v-284h215v-259h-215v-266h101z" />
    <glyph glyph-name="Eth" unicode="&#xf0;" horiz-adv-x="1697" 
d="M745 1612c548 2 882 -304 882 -808c0 -500 -334 -804 -882 -804h-526v669h-177v260h177v682zM737 403c287 0 461 152 461 402c0 253 -175 407 -464 407h-98v-284h215v-259h-215v-266h101z" />
    <glyph glyph-name="Dcaron" unicode="&#x10e;" horiz-adv-x="1619" 
d="M939 1759h-239l-311 293h304l127 -130l127 130h307zM666 1612c548 2 883 -304 883 -808c0 -500 -335 -804 -883 -804h-526v1611zM659 403c286 0 461 152 461 402c0 253 -176 407 -465 407h-98v-809h102z" />
    <glyph glyph-name="Dcaron" unicode="&#x10f;" horiz-adv-x="1619" 
d="M939 1759h-239l-311 293h304l127 -130l127 130h307zM666 1612c548 2 883 -304 883 -808c0 -500 -335 -804 -883 -804h-526v1611zM659 403c286 0 461 152 461 402c0 253 -176 407 -465 407h-98v-809h102z" />
    <glyph glyph-name="Dcroat" unicode="&#x110;" horiz-adv-x="1697" 
d="M745 1612c548 2 882 -304 882 -808c0 -500 -334 -804 -882 -804h-526v669h-177v260h177v682zM737 403c287 0 461 152 461 402c0 253 -175 407 -464 407h-98v-284h215v-259h-215v-266h101z" />
    <glyph glyph-name="Dcroat" unicode="&#x111;" horiz-adv-x="1697" 
d="M745 1612c548 2 882 -304 882 -808c0 -500 -334 -804 -882 -804h-526v669h-177v260h177v682zM737 403c287 0 461 152 461 402c0 253 -175 407 -464 407h-98v-284h215v-259h-215v-266h101z" />
    <glyph glyph-name="E" unicode="E" horiz-adv-x="1283" 
d="M1185 1214h-622v-225h512v-357h-512v-231h622v-401h-1045v1612h1045v-398z" />
    <glyph glyph-name="E" unicode="e" horiz-adv-x="1283" 
d="M1185 1214h-622v-225h512v-357h-512v-231h622v-401h-1045v1612h1045v-398z" />
    <glyph glyph-name="Eacute" unicode="&#xc9;" horiz-adv-x="1283" 
d="M975 2082l-238 -337h-269l172 337h335zM1185 1214h-622v-225h512v-357h-512v-231h622v-401h-1045v1612h1045v-398z" />
    <glyph glyph-name="Eacute" unicode="&#xe9;" horiz-adv-x="1283" 
d="M975 2082l-238 -337h-269l172 337h335zM1185 1214h-622v-225h512v-357h-512v-231h622v-401h-1045v1612h1045v-398z" />
    <glyph glyph-name="Ebreve" unicode="&#x114;" horiz-adv-x="1283" 
d="M637 1753c-184 0 -322 130 -322 301h192c0 -76 56 -134 130 -134s131 58 131 134h192c0 -171 -139 -301 -323 -301zM1185 1214h-622v-225h512v-357h-512v-231h622v-401h-1045v1612h1045v-398z" />
    <glyph glyph-name="Ebreve" unicode="&#x115;" horiz-adv-x="1283" 
d="M637 1753c-184 0 -322 130 -322 301h192c0 -76 56 -134 130 -134s131 58 131 134h192c0 -171 -139 -301 -323 -301zM1185 1214h-622v-225h512v-357h-512v-231h622v-401h-1045v1612h1045v-398z" />
    <glyph glyph-name="Ecaron" unicode="&#x11a;" horiz-adv-x="1283" 
d="M754 1759h-239l-311 293h304l127 -130l127 130h307zM1185 1214h-622v-225h512v-357h-512v-231h622v-401h-1045v1612h1045v-398z" />
    <glyph glyph-name="Ecaron" unicode="&#x11b;" horiz-adv-x="1283" 
d="M754 1759h-239l-311 293h304l127 -130l127 130h307zM1185 1214h-622v-225h512v-357h-512v-231h622v-401h-1045v1612h1045v-398z" />
    <glyph glyph-name="Ecircumflex" unicode="&#xca;" horiz-adv-x="1283" 
d="M636 1889l-127 -130h-304l311 293h239l315 -293h-307zM1185 1214h-622v-225h512v-357h-512v-231h622v-401h-1045v1612h1045v-398z" />
    <glyph glyph-name="Ecircumflex" unicode="&#xea;" horiz-adv-x="1283" 
d="M636 1889l-127 -130h-304l311 293h239l315 -293h-307zM1185 1214h-622v-225h512v-357h-512v-231h622v-401h-1045v1612h1045v-398z" />
    <glyph glyph-name="Edieresis" unicode="&#xcb;" horiz-adv-x="1283" 
d="M397 1761c-81 0 -148 62 -148 137c0 74 67 139 148 139c79 0 146 -65 146 -139c0 -75 -67 -137 -146 -137zM878 1761c-80 0 -146 62 -146 137c0 74 67 139 146 139c81 0 148 -65 148 -139c0 -75 -67 -137 -148 -137zM1185 1214h-622v-225h512v-357h-512v-231h622v-401
h-1045v1612h1045v-398z" />
    <glyph glyph-name="Edieresis" unicode="&#xeb;" horiz-adv-x="1283" 
d="M397 1761c-81 0 -148 62 -148 137c0 74 67 139 148 139c79 0 146 -65 146 -139c0 -75 -67 -137 -146 -137zM878 1761c-80 0 -146 62 -146 137c0 74 67 139 146 139c81 0 148 -65 148 -139c0 -75 -67 -137 -148 -137zM1185 1214h-622v-225h512v-357h-512v-231h622v-401
h-1045v1612h1045v-398z" />
    <glyph glyph-name="Edotaccent" unicode="&#x116;" horiz-adv-x="1283" 
d="M637 1759c-94 0 -169 71 -169 157s76 161 169 161s170 -75 170 -160c0 -88 -78 -158 -170 -158zM1185 1214h-622v-225h512v-357h-512v-231h622v-401h-1045v1612h1045v-398z" />
    <glyph glyph-name="Edotaccent" unicode="&#x117;" horiz-adv-x="1283" 
d="M637 1759c-94 0 -169 71 -169 157s76 161 169 161s170 -75 170 -160c0 -88 -78 -158 -170 -158zM1185 1214h-622v-225h512v-357h-512v-231h622v-401h-1045v1612h1045v-398z" />
    <glyph glyph-name="Egrave" unicode="&#xc8;" horiz-adv-x="1283" 
d="M891 1745h-269l-238 337h335zM1185 1214h-622v-225h512v-357h-512v-231h622v-401h-1045v1612h1045v-398z" />
    <glyph glyph-name="Egrave" unicode="&#xe8;" horiz-adv-x="1283" 
d="M891 1745h-269l-238 337h335zM1185 1214h-622v-225h512v-357h-512v-231h622v-401h-1045v1612h1045v-398z" />
    <glyph glyph-name="Emacron" unicode="&#x112;" horiz-adv-x="1283" 
d="M965 2002v-201h-655v201h655zM1185 1214h-622v-225h512v-357h-512v-231h622v-401h-1045v1612h1045v-398z" />
    <glyph glyph-name="Emacron" unicode="&#x113;" horiz-adv-x="1283" 
d="M965 2002v-201h-655v201h655zM1185 1214h-622v-225h512v-357h-512v-231h622v-401h-1045v1612h1045v-398z" />
    <glyph glyph-name="Eogonek" unicode="&#x118;" horiz-adv-x="1283" 
d="M1185 1214h-622v-225h512v-357h-512v-231h622v-401h-26c-133 -99 -190 -159 -190 -227c0 -34 17 -65 58 -65c22 0 67 6 119 19l39 -270c-71 -15 -135 -22 -193 -22c-209 0 -321 93 -321 249c0 136 87 252 204 316h-735v1612h1045v-398z" />
    <glyph glyph-name="Eogonek" unicode="&#x119;" horiz-adv-x="1283" 
d="M1185 1214h-622v-225h512v-357h-512v-231h622v-401h-26c-133 -99 -190 -159 -190 -227c0 -34 17 -65 58 -65c22 0 67 6 119 19l39 -270c-71 -15 -135 -22 -193 -22c-209 0 -321 93 -321 249c0 136 87 252 204 316h-735v1612h1045v-398z" />
    <glyph glyph-name="F" unicode="F" horiz-adv-x="1227" 
d="M1185 1214h-622v-261h512v-358h-512v-597h-423v1618h1045v-402z" />
    <glyph glyph-name="F" unicode="f" horiz-adv-x="1227" 
d="M1185 1214h-622v-261h512v-358h-512v-597h-423v1618h1045v-402z" />
    <glyph glyph-name="G" unicode="G" horiz-adv-x="1867" 
d="M1784 926c8 -54 13 -106 13 -157c0 -490 -370 -807 -828 -807c-512 0 -899 382 -899 842s388 847 888 847c205 -3 442 -90 575 -213l-237 -325c-90 84 -219 138 -338 138c-240 0 -451 -197 -451 -446c0 -226 181 -446 479 -446c195 0 334 94 340 248h-369v319h827z" />
    <glyph glyph-name="G" unicode="g" horiz-adv-x="1867" 
d="M1784 926c8 -54 13 -106 13 -157c0 -490 -370 -807 -828 -807c-512 0 -899 382 -899 842s388 847 888 847c205 -3 442 -90 575 -213l-237 -325c-90 84 -219 138 -338 138c-240 0 -451 -197 -451 -446c0 -226 181 -446 479 -446c195 0 334 94 340 248h-369v319h827z" />
    <glyph glyph-name="Gbreve" unicode="&#x11e;" horiz-adv-x="1867" 
d="M958 1753c-184 0 -322 130 -322 301h192c0 -76 56 -134 130 -134s131 58 131 134h192c0 -171 -139 -301 -323 -301zM1784 926c8 -54 13 -106 13 -157c0 -490 -370 -807 -828 -807c-512 0 -899 382 -899 842s388 847 888 847c205 -3 442 -90 575 -213l-237 -325
c-90 84 -219 138 -338 138c-240 0 -451 -197 -451 -446c0 -226 181 -446 479 -446c195 0 334 94 340 248h-369v319h827z" />
    <glyph glyph-name="Gbreve" unicode="&#x11f;" horiz-adv-x="1867" 
d="M958 1753c-184 0 -322 130 -322 301h192c0 -76 56 -134 130 -134s131 58 131 134h192c0 -171 -139 -301 -323 -301zM1784 926c8 -54 13 -106 13 -157c0 -490 -370 -807 -828 -807c-512 0 -899 382 -899 842s388 847 888 847c205 -3 442 -90 575 -213l-237 -325
c-90 84 -219 138 -338 138c-240 0 -451 -197 -451 -446c0 -226 181 -446 479 -446c195 0 334 94 340 248h-369v319h827z" />
    <glyph glyph-name="uni0122" unicode="&#x122;" horiz-adv-x="1867" 
d="M1784 926c8 -54 13 -106 13 -157c0 -490 -370 -807 -828 -807c-512 0 -899 382 -899 842s388 847 888 847c205 -3 442 -90 575 -213l-237 -325c-90 84 -219 138 -338 138c-240 0 -451 -197 -451 -446c0 -226 181 -446 479 -446c195 0 334 94 340 248h-369v319h827z
M962 -114c110 0 185 -82 185 -207c0 -143 -98 -292 -256 -292c-64 0 -107 30 -107 46c48 0 140 31 140 114c0 25 -5 37 -12 46c-65 0 -136 57 -136 134c0 84 78 159 186 159z" />
    <glyph glyph-name="uni0122" unicode="&#x123;" horiz-adv-x="1867" 
d="M1784 926c8 -54 13 -106 13 -157c0 -490 -370 -807 -828 -807c-512 0 -899 382 -899 842s388 847 888 847c205 -3 442 -90 575 -213l-237 -325c-90 84 -219 138 -338 138c-240 0 -451 -197 -451 -446c0 -226 181 -446 479 -446c195 0 334 94 340 248h-369v319h827z
M962 -114c110 0 185 -82 185 -207c0 -143 -98 -292 -256 -292c-64 0 -107 30 -107 46c48 0 140 31 140 114c0 25 -5 37 -12 46c-65 0 -136 57 -136 134c0 84 78 159 186 159z" />
    <glyph glyph-name="Gdotaccent" unicode="&#x120;" horiz-adv-x="1867" 
d="M959 1759c-94 0 -169 71 -169 157s76 161 169 161s170 -75 170 -160c0 -88 -78 -158 -170 -158zM1784 926c8 -54 13 -106 13 -157c0 -490 -370 -807 -828 -807c-512 0 -899 382 -899 842s388 847 888 847c205 -3 442 -90 575 -213l-237 -325c-90 84 -219 138 -338 138
c-240 0 -451 -197 -451 -446c0 -226 181 -446 479 -446c195 0 334 94 340 248h-369v319h827z" />
    <glyph glyph-name="Gdotaccent" unicode="&#x121;" horiz-adv-x="1867" 
d="M959 1759c-94 0 -169 71 -169 157s76 161 169 161s170 -75 170 -160c0 -88 -78 -158 -170 -158zM1784 926c8 -54 13 -106 13 -157c0 -490 -370 -807 -828 -807c-512 0 -899 382 -899 842s388 847 888 847c205 -3 442 -90 575 -213l-237 -325c-90 84 -219 138 -338 138
c-240 0 -451 -197 -451 -446c0 -226 181 -446 479 -446c195 0 334 94 340 248h-369v319h827z" />
    <glyph glyph-name="H" unicode="H" horiz-adv-x="1614" 
d="M1047 1612h427v-1612h-427v607h-479v-607h-428v1612h428v-605h479v605z" />
    <glyph glyph-name="H" unicode="h" horiz-adv-x="1614" 
d="M1047 1612h427v-1612h-427v607h-479v-607h-428v1612h428v-605h479v605z" />
    <glyph glyph-name="Hbar" unicode="&#x126;" horiz-adv-x="1614" 
d="M1596 1388v-230h-122v-1158h-427v607h-479v-607h-428v1158h-121v230h121v224h428v-224h479v224h427v-224h122zM1047 1007v151h-479v-151h479z" />
    <glyph glyph-name="Hbar" unicode="&#x127;" horiz-adv-x="1614" 
d="M1596 1388v-230h-122v-1158h-427v607h-479v-607h-428v1158h-121v230h121v224h428v-224h479v224h427v-224h122zM1047 1007v151h-479v-151h479z" />
    <glyph glyph-name="I" unicode="I" horiz-adv-x="708" 
d="M140 0v1612h428v-1612h-428z" />
    <glyph glyph-name="Iacute" unicode="&#xcd;" horiz-adv-x="708" 
d="M455 1745h-269l172 337h335zM140 0v1612h428v-1612h-428z" />
    <glyph glyph-name="Iacute" unicode="&#xed;" horiz-adv-x="708" 
d="M455 1745h-269l172 337h335zM140 0v1612h428v-1612h-428z" />
    <glyph glyph-name="Icircumflex" unicode="&#xce;" horiz-adv-x="708" 
d="M-78 1759l311 293h239l315 -293h-307l-127 130l-127 -130h-304zM140 0v1612h428v-1612h-428z" />
    <glyph glyph-name="Icircumflex" unicode="&#xee;" horiz-adv-x="708" 
d="M-78 1759l311 293h239l315 -293h-307l-127 130l-127 -130h-304zM140 0v1612h428v-1612h-428z" />
    <glyph glyph-name="Idieresis" unicode="&#xcf;" horiz-adv-x="708" 
d="M114 1761c-81 0 -148 62 -148 137c0 74 67 139 148 139c79 0 146 -65 146 -139c0 -75 -67 -137 -146 -137zM595 1761c-80 0 -146 62 -146 137c0 74 67 139 146 139c81 0 148 -65 148 -139c0 -75 -67 -137 -148 -137zM140 0v1612h428v-1612h-428z" />
    <glyph glyph-name="Idieresis" unicode="&#xef;" horiz-adv-x="708" 
d="M114 1761c-81 0 -148 62 -148 137c0 74 67 139 148 139c79 0 146 -65 146 -139c0 -75 -67 -137 -146 -137zM595 1761c-80 0 -146 62 -146 137c0 74 67 139 146 139c81 0 148 -65 148 -139c0 -75 -67 -137 -148 -137zM140 0v1612h428v-1612h-428z" />
    <glyph glyph-name="Idotaccent" unicode="&#x130;" horiz-adv-x="708" 
d="M355 1759c-94 0 -169 71 -169 157s76 161 169 161s170 -75 170 -160c0 -88 -78 -158 -170 -158zM140 0v1612h428v-1612h-428z" />
    <glyph glyph-name="Igrave" unicode="&#xcc;" horiz-adv-x="708" 
d="M339 1745l-238 337h335l172 -337h-269zM140 0v1612h428v-1612h-428z" />
    <glyph glyph-name="Igrave" unicode="&#xec;" horiz-adv-x="708" 
d="M339 1745l-238 337h335l172 -337h-269zM140 0v1612h428v-1612h-428z" />
    <glyph glyph-name="Imacron" unicode="&#x12a;" horiz-adv-x="708" 
d="M27 1801v201h655v-201h-655zM140 0v1612h428v-1612h-428z" />
    <glyph glyph-name="Imacron" unicode="&#x12b;" horiz-adv-x="708" 
d="M27 1801v201h655v-201h-655zM140 0v1612h428v-1612h-428z" />
    <glyph glyph-name="Iogonek" unicode="&#x12e;" horiz-adv-x="708" 
d="M548 -278l39 -270c-71 -15 -135 -22 -193 -22c-209 0 -321 93 -321 249c0 140 91 258 214 321h-147v1612h428v-1612c-138 -102 -197 -163 -197 -232c0 -34 17 -65 58 -65c22 0 67 6 119 19z" />
    <glyph glyph-name="Iogonek" unicode="&#x12f;" horiz-adv-x="708" 
d="M548 -278l39 -270c-71 -15 -135 -22 -193 -22c-209 0 -321 93 -321 249c0 140 91 258 214 321h-147v1612h428v-1612c-138 -102 -197 -163 -197 -232c0 -34 17 -65 58 -65c22 0 67 6 119 19z" />
    <glyph glyph-name="J" unicode="J" horiz-adv-x="1260" 
d="M431 -26c-152 0 -272 35 -389 111l216 353c58 -44 97 -61 176 -61h7c148 0 265 116 265 245l-8 990l429 -1l7 -991c0 -365 -306 -646 -691 -646h-12z" />
    <glyph glyph-name="J" unicode="j" horiz-adv-x="1260" 
d="M431 -26c-152 0 -272 35 -389 111l216 353c58 -44 97 -61 176 -61h7c148 0 265 116 265 245l-8 990l429 -1l7 -991c0 -365 -306 -646 -691 -646h-12z" />
    <glyph glyph-name="K" unicode="K" horiz-adv-x="1508" 
d="M1494 0h-519l-408 613v-613h-427v1612h427v-601l374 601h492l-494 -786z" />
    <glyph glyph-name="K" unicode="k" horiz-adv-x="1508" 
d="M1494 0h-519l-408 613v-613h-427v1612h427v-601l374 601h492l-494 -786z" />
    <glyph glyph-name="uni0136" unicode="&#x136;" horiz-adv-x="1508" 
d="M975 0l-408 613v-613h-427v1612h427v-601l374 601h492l-494 -786l555 -826h-519zM806 -114c110 0 185 -82 185 -207c0 -143 -98 -292 -256 -292c-64 0 -107 30 -107 46c48 0 140 31 140 114c0 25 -5 37 -12 46c-65 0 -136 57 -136 134c0 84 78 159 186 159z" />
    <glyph glyph-name="uni0136" unicode="&#x137;" horiz-adv-x="1508" 
d="M975 0l-408 613v-613h-427v1612h427v-601l374 601h492l-494 -786l555 -826h-519zM806 -114c110 0 185 -82 185 -207c0 -143 -98 -292 -256 -292c-64 0 -107 30 -107 46c48 0 140 31 140 114c0 25 -5 37 -12 46c-65 0 -136 57 -136 134c0 84 78 159 186 159z" />
    <glyph glyph-name="L" unicode="L" horiz-adv-x="1227" 
d="M568 402h617v-402h-1045v1612h428v-1210z" />
    <glyph glyph-name="L" unicode="l" horiz-adv-x="1227" 
d="M568 402h617v-402h-1045v1612h428v-1210z" />
    <glyph glyph-name="Lacute" unicode="&#x139;" horiz-adv-x="1227" 
d="M961 2082l-238 -337h-269l172 337h335zM568 402h617v-402h-1045v1612h428v-1210z" />
    <glyph glyph-name="Lacute" unicode="&#x13a;" horiz-adv-x="1227" 
d="M961 2082l-238 -337h-269l172 337h335zM568 402h617v-402h-1045v1612h428v-1210z" />
    <glyph glyph-name="Lcaron" unicode="&#x13d;" horiz-adv-x="1227" 
d="M1055 1714l-120 -470h-230l70 470h280zM568 402h617v-402h-1045v1612h428v-1210z" />
    <glyph glyph-name="Lcaron" unicode="&#x13e;" horiz-adv-x="1227" 
d="M1055 1714l-120 -470h-230l70 470h280zM568 402h617v-402h-1045v1612h428v-1210z" />
    <glyph glyph-name="uni013B" unicode="&#x13b;" horiz-adv-x="1227" 
d="M568 402h617v-402h-1045v1612h428v-1210zM626 -114c110 0 185 -82 185 -207c0 -143 -98 -292 -256 -292c-64 0 -107 30 -107 46c48 0 140 31 140 114c0 25 -5 37 -12 46c-65 0 -136 57 -136 134c0 84 78 159 186 159z" />
    <glyph glyph-name="uni013B" unicode="&#x13c;" horiz-adv-x="1227" 
d="M568 402h617v-402h-1045v1612h428v-1210zM626 -114c110 0 185 -82 185 -207c0 -143 -98 -292 -256 -292c-64 0 -107 30 -107 46c48 0 140 31 140 114c0 25 -5 37 -12 46c-65 0 -136 57 -136 134c0 84 78 159 186 159z" />
    <glyph glyph-name="Lslash" unicode="&#x141;" horiz-adv-x="1227" 
d="M568 402h617v-402h-1045v503l-156 -105v310l156 105v799h428v-512l177 119v-311l-177 -119v-387z" />
    <glyph glyph-name="Lslash" unicode="&#x142;" horiz-adv-x="1227" 
d="M568 402h617v-402h-1045v503l-156 -105v310l156 105v799h428v-512l177 119v-311l-177 -119v-387z" />
    <glyph glyph-name="M" unicode="M" horiz-adv-x="2008" 
d="M1696 1627h172v-1627h-428v639l-434 -612h-3l-435 612v-639h-428v1627h172l692 -948z" />
    <glyph glyph-name="M" unicode="m" horiz-adv-x="2008" 
d="M1696 1627h172v-1627h-428v639l-434 -612h-3l-435 612v-639h-428v1627h172l692 -948z" />
    <glyph glyph-name="N" unicode="N" horiz-adv-x="1673" 
d="M1104 1614h429v-1630h-136l-829 803v-788h-428v1629h138l826 -800v786z" />
    <glyph glyph-name="N" unicode="n" horiz-adv-x="1673" 
d="M1104 1614h429v-1630h-136l-829 803v-788h-428v1629h138l826 -800v786z" />
    <glyph glyph-name="Nacute" unicode="&#x143;" horiz-adv-x="1673" 
d="M1175 2082l-238 -337h-269l172 337h335zM1104 1614h429v-1630h-136l-829 803v-788h-428v1629h138l826 -800v786z" />
    <glyph glyph-name="Nacute" unicode="&#x144;" horiz-adv-x="1673" 
d="M1175 2082l-238 -337h-269l172 337h335zM1104 1614h429v-1630h-136l-829 803v-788h-428v1629h138l826 -800v786z" />
    <glyph glyph-name="Ncaron" unicode="&#x147;" horiz-adv-x="1673" 
d="M954 1759h-239l-311 293h304l127 -130l127 130h307zM1104 1614h429v-1630h-136l-829 803v-788h-428v1629h138l826 -800v786z" />
    <glyph glyph-name="Ncaron" unicode="&#x148;" horiz-adv-x="1673" 
d="M954 1759h-239l-311 293h304l127 -130l127 130h307zM1104 1614h429v-1630h-136l-829 803v-788h-428v1629h138l826 -800v786z" />
    <glyph glyph-name="uni0145" unicode="&#x145;" horiz-adv-x="1673" 
d="M1104 1614h429v-1630h-136l-829 803v-788h-428v1629h138l826 -800v786zM840 -114c110 0 185 -82 185 -207c0 -143 -98 -292 -256 -292c-64 0 -107 30 -107 46c48 0 140 31 140 114c0 25 -5 37 -12 46c-65 0 -136 57 -136 134c0 84 78 159 186 159z" />
    <glyph glyph-name="uni0145" unicode="&#x146;" horiz-adv-x="1673" 
d="M1104 1614h429v-1630h-136l-829 803v-788h-428v1629h138l826 -800v786zM840 -114c110 0 185 -82 185 -207c0 -143 -98 -292 -256 -292c-64 0 -107 30 -107 46c48 0 140 31 140 114c0 25 -5 37 -12 46c-65 0 -136 57 -136 134c0 84 78 159 186 159z" />
    <glyph glyph-name="Eng" unicode="&#x14a;" horiz-adv-x="1673" 
d="M1104 1614h429v-1657c0 -225 -138 -392 -358 -483l-228 175c107 61 182 151 182 302v293l-561 543v-788h-428v1629h138l826 -800v786z" />
    <glyph glyph-name="Eng" unicode="&#x14b;" horiz-adv-x="1673" 
d="M1104 1614h429v-1657c0 -225 -138 -392 -358 -483l-228 175c107 61 182 151 182 302v293l-561 543v-788h-428v1629h138l826 -800v786z" />
    <glyph glyph-name="Ntilde" unicode="&#xd1;" horiz-adv-x="1673" 
d="M682 1894c-57 0 -83 -56 -99 -125l-195 60c42 209 178 268 292 268c167 0 225 -129 313 -129c55 0 82 55 99 124l194 -60c-43 -214 -184 -268 -292 -268c-168 0 -223 130 -312 130zM1104 1614h429v-1630h-136l-829 803v-788h-428v1629h138l826 -800v786z" />
    <glyph glyph-name="Ntilde" unicode="&#xf1;" horiz-adv-x="1673" 
d="M682 1894c-57 0 -83 -56 -99 -125l-195 60c42 209 178 268 292 268c167 0 225 -129 313 -129c55 0 82 55 99 124l194 -60c-43 -214 -184 -268 -292 -268c-168 0 -223 130 -312 130zM1104 1614h429v-1630h-136l-829 803v-788h-428v1629h138l826 -800v786z" />
    <glyph glyph-name="O" unicode="O" horiz-adv-x="1910" 
d="M954 -41c-501 0 -884 365 -884 845c0 484 384 851 885 851s885 -367 885 -851c0 -480 -384 -845 -886 -845zM955 368c256 0 452 191 452 439c0 249 -196 441 -452 441s-452 -192 -452 -441c0 -248 196 -439 452 -439z" />
    <glyph glyph-name="O" unicode="o" horiz-adv-x="1910" 
d="M954 -41c-501 0 -884 365 -884 845c0 484 384 851 885 851s885 -367 885 -851c0 -480 -384 -845 -886 -845zM955 368c256 0 452 191 452 439c0 249 -196 441 -452 441s-452 -192 -452 -441c0 -248 196 -439 452 -439z" />
    <glyph glyph-name="Oacute" unicode="&#xd3;" horiz-adv-x="1910" 
d="M1055 1745h-269l172 337h335zM954 -41c-501 0 -884 365 -884 845c0 484 384 851 885 851s885 -367 885 -851c0 -480 -384 -845 -886 -845zM955 368c256 0 452 191 452 439c0 249 -196 441 -452 441s-452 -192 -452 -441c0 -248 196 -439 452 -439z" />
    <glyph glyph-name="Oacute" unicode="&#xf3;" horiz-adv-x="1910" 
d="M1055 1745h-269l172 337h335zM954 -41c-501 0 -884 365 -884 845c0 484 384 851 885 851s885 -367 885 -851c0 -480 -384 -845 -886 -845zM955 368c256 0 452 191 452 439c0 249 -196 441 -452 441s-452 -192 -452 -441c0 -248 196 -439 452 -439z" />
    <glyph glyph-name="Ocircumflex" unicode="&#xd4;" horiz-adv-x="1910" 
d="M523 1759l311 293h239l315 -293h-307l-127 130l-127 -130h-304zM954 -41c-501 0 -884 365 -884 845c0 484 384 851 885 851s885 -367 885 -851c0 -480 -384 -845 -886 -845zM955 368c256 0 452 191 452 439c0 249 -196 441 -452 441s-452 -192 -452 -441
c0 -248 196 -439 452 -439z" />
    <glyph glyph-name="Ocircumflex" unicode="&#xf4;" horiz-adv-x="1910" 
d="M523 1759l311 293h239l315 -293h-307l-127 130l-127 -130h-304zM954 -41c-501 0 -884 365 -884 845c0 484 384 851 885 851s885 -367 885 -851c0 -480 -384 -845 -886 -845zM955 368c256 0 452 191 452 439c0 249 -196 441 -452 441s-452 -192 -452 -441
c0 -248 196 -439 452 -439z" />
    <glyph glyph-name="Odieresis" unicode="&#xd6;" horiz-adv-x="1910" 
d="M715 1761c-81 0 -148 62 -148 137c0 74 67 139 148 139c79 0 146 -65 146 -139c0 -75 -67 -137 -146 -137zM1196 1761c-80 0 -146 62 -146 137c0 74 67 139 146 139c81 0 148 -65 148 -139c0 -75 -67 -137 -148 -137zM954 -41c-501 0 -884 365 -884 845
c0 484 384 851 885 851s885 -367 885 -851c0 -480 -384 -845 -886 -845zM955 368c256 0 452 191 452 439c0 249 -196 441 -452 441s-452 -192 -452 -441c0 -248 196 -439 452 -439z" />
    <glyph glyph-name="Odieresis" unicode="&#xf6;" horiz-adv-x="1910" 
d="M715 1761c-81 0 -148 62 -148 137c0 74 67 139 148 139c79 0 146 -65 146 -139c0 -75 -67 -137 -146 -137zM1196 1761c-80 0 -146 62 -146 137c0 74 67 139 146 139c81 0 148 -65 148 -139c0 -75 -67 -137 -148 -137zM954 -41c-501 0 -884 365 -884 845
c0 484 384 851 885 851s885 -367 885 -851c0 -480 -384 -845 -886 -845zM955 368c256 0 452 191 452 439c0 249 -196 441 -452 441s-452 -192 -452 -441c0 -248 196 -439 452 -439z" />
    <glyph glyph-name="Ograve" unicode="&#xd2;" horiz-adv-x="1910" 
d="M940 1745l-238 337h335l172 -337h-269zM954 -41c-501 0 -884 365 -884 845c0 484 384 851 885 851s885 -367 885 -851c0 -480 -384 -845 -886 -845zM955 368c256 0 452 191 452 439c0 249 -196 441 -452 441s-452 -192 -452 -441c0 -248 196 -439 452 -439z" />
    <glyph glyph-name="Ograve" unicode="&#xf2;" horiz-adv-x="1910" 
d="M940 1745l-238 337h335l172 -337h-269zM954 -41c-501 0 -884 365 -884 845c0 484 384 851 885 851s885 -367 885 -851c0 -480 -384 -845 -886 -845zM955 368c256 0 452 191 452 439c0 249 -196 441 -452 441s-452 -192 -452 -441c0 -248 196 -439 452 -439z" />
    <glyph glyph-name="Ohungarumlaut" unicode="&#x150;" horiz-adv-x="1910" 
d="M561 1745l137 337h299l-196 -337h-240zM946 1745l208 337h335l-289 -337h-254zM954 -41c-501 0 -884 365 -884 845c0 484 384 851 885 851s885 -367 885 -851c0 -480 -384 -845 -886 -845zM955 368c256 0 452 191 452 439c0 249 -196 441 -452 441s-452 -192 -452 -441
c0 -248 196 -439 452 -439z" />
    <glyph glyph-name="Ohungarumlaut" unicode="&#x151;" horiz-adv-x="1910" 
d="M561 1745l137 337h299l-196 -337h-240zM946 1745l208 337h335l-289 -337h-254zM954 -41c-501 0 -884 365 -884 845c0 484 384 851 885 851s885 -367 885 -851c0 -480 -384 -845 -886 -845zM955 368c256 0 452 191 452 439c0 249 -196 441 -452 441s-452 -192 -452 -441
c0 -248 196 -439 452 -439z" />
    <glyph glyph-name="Omacron" unicode="&#x14c;" horiz-adv-x="1910" 
d="M628 1801v201h655v-201h-655zM954 -41c-501 0 -884 365 -884 845c0 484 384 851 885 851s885 -367 885 -851c0 -480 -384 -845 -886 -845zM955 368c256 0 452 191 452 439c0 249 -196 441 -452 441s-452 -192 -452 -441c0 -248 196 -439 452 -439z" />
    <glyph glyph-name="Omacron" unicode="&#x14d;" horiz-adv-x="1910" 
d="M628 1801v201h655v-201h-655zM954 -41c-501 0 -884 365 -884 845c0 484 384 851 885 851s885 -367 885 -851c0 -480 -384 -845 -886 -845zM955 368c256 0 452 191 452 439c0 249 -196 441 -452 441s-452 -192 -452 -441c0 -248 196 -439 452 -439z" />
    <glyph glyph-name="Oslash" unicode="&#xd8;" horiz-adv-x="1910" 
d="M1573 1423c166 -153 267 -371 267 -619c0 -480 -384 -845 -886 -845c-125 0 -242 23 -348 64l-73 -106h-343l173 250c-182 153 -293 378 -293 637c0 484 384 851 885 851c138 0 267 -28 382 -78l50 72h342zM503 807c0 -110 39 -210 105 -286l488 706
c-44 14 -92 21 -141 21c-256 0 -452 -192 -452 -441zM955 368c256 0 452 191 452 439c0 97 -30 186 -82 258l-473 -686c33 -7 67 -11 103 -11z" />
    <glyph glyph-name="Oslash" unicode="&#xf8;" horiz-adv-x="1910" 
d="M1573 1423c166 -153 267 -371 267 -619c0 -480 -384 -845 -886 -845c-125 0 -242 23 -348 64l-73 -106h-343l173 250c-182 153 -293 378 -293 637c0 484 384 851 885 851c138 0 267 -28 382 -78l50 72h342zM503 807c0 -110 39 -210 105 -286l488 706
c-44 14 -92 21 -141 21c-256 0 -452 -192 -452 -441zM955 368c256 0 452 191 452 439c0 97 -30 186 -82 258l-473 -686c33 -7 67 -11 103 -11z" />
    <glyph glyph-name="Otilde" unicode="&#xd5;" horiz-adv-x="1910" 
d="M701 1769l-195 60c42 209 178 268 292 268c167 0 225 -129 313 -129c55 0 82 55 99 124l194 -60c-43 -214 -184 -268 -292 -268c-168 0 -223 130 -312 130c-57 0 -83 -56 -99 -125zM954 -41c-501 0 -884 365 -884 845c0 484 384 851 885 851s885 -367 885 -851
c0 -480 -384 -845 -886 -845zM955 368c256 0 452 191 452 439c0 249 -196 441 -452 441s-452 -192 -452 -441c0 -248 196 -439 452 -439z" />
    <glyph glyph-name="Otilde" unicode="&#xf5;" horiz-adv-x="1910" 
d="M701 1769l-195 60c42 209 178 268 292 268c167 0 225 -129 313 -129c55 0 82 55 99 124l194 -60c-43 -214 -184 -268 -292 -268c-168 0 -223 130 -312 130c-57 0 -83 -56 -99 -125zM954 -41c-501 0 -884 365 -884 845c0 484 384 851 885 851s885 -367 885 -851
c0 -480 -384 -845 -886 -845zM955 368c256 0 452 191 452 439c0 249 -196 441 -452 441s-452 -192 -452 -441c0 -248 196 -439 452 -439z" />
    <glyph glyph-name="OE" unicode="&#x152;" horiz-adv-x="2619" 
d="M2521 1214h-622v-225h511v-357h-511v-231h622v-401h-1045v168c-138 -131 -323 -209 -532 -209c-491 0 -874 365 -874 845c0 484 384 851 875 851c208 0 393 -78 531 -210v167h1045v-398zM955 368c256 0 452 191 452 439c0 249 -196 441 -452 441s-452 -192 -452 -441
c0 -248 196 -439 452 -439z" />
    <glyph glyph-name="OE" unicode="&#x153;" horiz-adv-x="2619" 
d="M2521 1214h-622v-225h511v-357h-511v-231h622v-401h-1045v168c-138 -131 -323 -209 -532 -209c-491 0 -874 365 -874 845c0 484 384 851 875 851c208 0 393 -78 531 -210v167h1045v-398zM955 368c256 0 452 191 452 439c0 249 -196 441 -452 441s-452 -192 -452 -441
c0 -248 196 -439 452 -439z" />
    <glyph glyph-name="P" unicode="P" horiz-adv-x="1400" 
d="M140 0v1612h609c332 0 609 -250 609 -565c0 -311 -271 -572 -609 -572h-181v-475h-428zM749 869c115 -1 196 77 196 176c0 98 -82 172 -196 172h-181v-347z" />
    <glyph glyph-name="P" unicode="p" horiz-adv-x="1400" 
d="M140 0v1612h609c332 0 609 -250 609 -565c0 -311 -271 -572 -609 -572h-181v-475h-428zM749 869c115 -1 196 77 196 176c0 98 -82 172 -196 172h-181v-347z" />
    <glyph glyph-name="Thorn" unicode="&#xde;" horiz-adv-x="1433" 
d="M140 0v1612h427v-245h216c329 0 580 -243 580 -551s-251 -551 -580 -551h-216v-265h-427zM567 636h216c105 0 187 80 187 180c0 99 -81 182 -187 182h-216v-362z" />
    <glyph glyph-name="Thorn" unicode="&#xfe;" horiz-adv-x="1433" 
d="M140 0v1612h427v-245h216c329 0 580 -243 580 -551s-251 -551 -580 -551h-216v-265h-427zM567 636h216c105 0 187 80 187 180c0 99 -81 182 -187 182h-216v-362z" />
    <glyph glyph-name="Q" unicode="Q" horiz-adv-x="1919" 
d="M1846 69l-146 -381c-292 21 -479 141 -625 278c-40 -5 -80 -7 -121 -7c-501 0 -884 365 -884 845c0 484 384 851 885 851s885 -367 885 -851c0 -291 -141 -539 -363 -690c110 -26 239 -42 369 -45zM503 807c0 -248 196 -439 452 -439s452 191 452 439
c0 249 -196 441 -452 441s-452 -192 -452 -441z" />
    <glyph glyph-name="Q" unicode="q" horiz-adv-x="1919" 
d="M1846 69l-146 -381c-292 21 -479 141 -625 278c-40 -5 -80 -7 -121 -7c-501 0 -884 365 -884 845c0 484 384 851 885 851s885 -367 885 -851c0 -291 -141 -539 -363 -690c110 -26 239 -42 369 -45zM503 807c0 -248 196 -439 452 -439s452 191 452 439
c0 249 -196 441 -452 441s-452 -192 -452 -441z" />
    <glyph glyph-name="Q.ss04" horiz-adv-x="1963" 
d="M1893 0h-462l-54 56c-125 -62 -268 -97 -423 -97c-501 0 -884 365 -884 845c0 484 384 851 885 851s885 -367 885 -851c0 -211 -74 -399 -199 -544zM955 368c37 0 73 4 107 12l-334 344h462l149 -153c43 67 68 148 68 236c0 249 -196 441 -452 441s-452 -192 -452 -441
c0 -248 196 -439 452 -439z" />
    <glyph glyph-name="R" unicode="R" horiz-adv-x="1516" 
d="M1502 0h-501l-431 700v-700h-428l-2 1612h612c348 0 597 -235 597 -524c0 -201 -121 -369 -279 -441zM568 1227v-323l175 -1c91 -1 174 63 174 162c0 100 -84 162 -174 162h-175z" />
    <glyph glyph-name="R" unicode="r" horiz-adv-x="1516" 
d="M1502 0h-501l-431 700v-700h-428l-2 1612h612c348 0 597 -235 597 -524c0 -201 -121 -369 -279 -441zM568 1227v-323l175 -1c91 -1 174 63 174 162c0 100 -84 162 -174 162h-175z" />
    <glyph glyph-name="R.ss04" horiz-adv-x="1472" 
d="M1458 0h-451l-241 526h-194l-3 -526h-428l-1 1612h632c353 0 606 -253 606 -551c0 -189 -104 -357 -249 -453zM568 874l192 -2c99 -1 192 72 192 179c0 106 -90 176 -192 176h-192v-353z" />
    <glyph glyph-name="Racute" unicode="&#x154;" horiz-adv-x="1516" 
d="M1102 2082l-238 -337h-269l172 337h335zM1502 0h-501l-431 700v-700h-428l-2 1612h612c348 0 597 -235 597 -524c0 -201 -121 -369 -279 -441zM568 1227v-323l175 -1c91 -1 174 63 174 162c0 100 -84 162 -174 162h-175z" />
    <glyph glyph-name="Racute" unicode="&#x155;" horiz-adv-x="1516" 
d="M1102 2082l-238 -337h-269l172 337h335zM1502 0h-501l-431 700v-700h-428l-2 1612h612c348 0 597 -235 597 -524c0 -201 -121 -369 -279 -441zM568 1227v-323l175 -1c91 -1 174 63 174 162c0 100 -84 162 -174 162h-175z" />
    <glyph glyph-name="Rcaron" unicode="&#x158;" horiz-adv-x="1516" 
d="M881 1759h-239l-311 293h304l127 -130l127 130h307zM1502 0h-501l-431 700v-700h-428l-2 1612h612c348 0 597 -235 597 -524c0 -201 -121 -369 -279 -441zM568 1227v-323l175 -1c91 -1 174 63 174 162c0 100 -84 162 -174 162h-175z" />
    <glyph glyph-name="Rcaron" unicode="&#x159;" horiz-adv-x="1516" 
d="M881 1759h-239l-311 293h304l127 -130l127 130h307zM1502 0h-501l-431 700v-700h-428l-2 1612h612c348 0 597 -235 597 -524c0 -201 -121 -369 -279 -441zM568 1227v-323l175 -1c91 -1 174 63 174 162c0 100 -84 162 -174 162h-175z" />
    <glyph glyph-name="uni0156" unicode="&#x156;" horiz-adv-x="1516" 
d="M1070 647l432 -647h-501l-431 700v-700h-428l-2 1612h612c348 0 597 -235 597 -524c0 -201 -121 -369 -279 -441zM568 1227v-323l175 -1c91 -1 174 63 174 162c0 100 -84 162 -174 162h-175zM767 -114c110 0 185 -82 185 -207c0 -143 -98 -292 -256 -292
c-64 0 -107 30 -107 46c48 0 140 31 140 114c0 25 -5 37 -12 46c-65 0 -136 57 -136 134c0 84 78 159 186 159z" />
    <glyph glyph-name="uni0156" unicode="&#x157;" horiz-adv-x="1516" 
d="M1070 647l432 -647h-501l-431 700v-700h-428l-2 1612h612c348 0 597 -235 597 -524c0 -201 -121 -369 -279 -441zM568 1227v-323l175 -1c91 -1 174 63 174 162c0 100 -84 162 -174 162h-175zM767 -114c110 0 185 -82 185 -207c0 -143 -98 -292 -256 -292
c-64 0 -107 30 -107 46c48 0 140 31 140 114c0 25 -5 37 -12 46c-65 0 -136 57 -136 134c0 84 78 159 186 159z" />
    <glyph glyph-name="S" unicode="S" horiz-adv-x="1308" 
d="M643 -22c-265 0 -506 117 -587 295l259 254c67 -99 192 -159 327 -159c91 0 180 33 180 99c0 83 -165 156 -323 226c-204 88 -379 222 -379 465c0 279 265 478 571 478c246 0 438 -116 501 -275l-247 -238c-48 85 -172 122 -249 122c-88 0 -151 -45 -151 -100
c0 -74 114 -98 288 -171c252 -106 419 -260 419 -498c0 -307 -286 -498 -609 -498z" />
    <glyph glyph-name="S" unicode="s" horiz-adv-x="1308" 
d="M643 -22c-265 0 -506 117 -587 295l259 254c67 -99 192 -159 327 -159c91 0 180 33 180 99c0 83 -165 156 -323 226c-204 88 -379 222 -379 465c0 279 265 478 571 478c246 0 438 -116 501 -275l-247 -238c-48 85 -172 122 -249 122c-88 0 -151 -45 -151 -100
c0 -74 114 -98 288 -171c252 -106 419 -260 419 -498c0 -307 -286 -498 -609 -498z" />
    <glyph glyph-name="Sacute" unicode="&#x15a;" horiz-adv-x="1308" 
d="M764 1745h-269l172 337h335zM643 -22c-265 0 -506 117 -587 295l259 254c67 -99 192 -159 327 -159c91 0 180 33 180 99c0 83 -165 156 -323 226c-204 88 -379 222 -379 465c0 279 265 478 571 478c246 0 438 -116 501 -275l-247 -238c-48 85 -172 122 -249 122
c-88 0 -151 -45 -151 -100c0 -74 114 -98 288 -171c252 -106 419 -260 419 -498c0 -307 -286 -498 -609 -498z" />
    <glyph glyph-name="Sacute" unicode="&#x15b;" horiz-adv-x="1308" 
d="M764 1745h-269l172 337h335zM643 -22c-265 0 -506 117 -587 295l259 254c67 -99 192 -159 327 -159c91 0 180 33 180 99c0 83 -165 156 -323 226c-204 88 -379 222 -379 465c0 279 265 478 571 478c246 0 438 -116 501 -275l-247 -238c-48 85 -172 122 -249 122
c-88 0 -151 -45 -151 -100c0 -74 114 -98 288 -171c252 -106 419 -260 419 -498c0 -307 -286 -498 -609 -498z" />
    <glyph glyph-name="Scaron" unicode="&#x160;" horiz-adv-x="1308" 
d="M231 2052h304l127 -130l127 130h307l-315 -293h-239zM643 -22c-265 0 -506 117 -587 295l259 254c67 -99 192 -159 327 -159c91 0 180 33 180 99c0 83 -165 156 -323 226c-204 88 -379 222 -379 465c0 279 265 478 571 478c246 0 438 -116 501 -275l-247 -238
c-48 85 -172 122 -249 122c-88 0 -151 -45 -151 -100c0 -74 114 -98 288 -171c252 -106 419 -260 419 -498c0 -307 -286 -498 -609 -498z" />
    <glyph glyph-name="Scaron" unicode="&#x161;" horiz-adv-x="1308" 
d="M231 2052h304l127 -130l127 130h307l-315 -293h-239zM643 -22c-265 0 -506 117 -587 295l259 254c67 -99 192 -159 327 -159c91 0 180 33 180 99c0 83 -165 156 -323 226c-204 88 -379 222 -379 465c0 279 265 478 571 478c246 0 438 -116 501 -275l-247 -238
c-48 85 -172 122 -249 122c-88 0 -151 -45 -151 -100c0 -74 114 -98 288 -171c252 -106 419 -260 419 -498c0 -307 -286 -498 -609 -498z" />
    <glyph glyph-name="Scedilla" unicode="&#x15e;" horiz-adv-x="1308" 
d="M1252 476c0 -267 -217 -446 -486 -489l-62 -74c9 0 15 1 24 1c90 0 160 -74 160 -170c0 -166 -201 -320 -442 -318l-99 231c194 -1 266 34 266 77c0 17 -10 46 -63 46c-13 0 -29 -2 -49 -7l-47 60l119 148c-237 18 -443 130 -517 292l259 254c67 -99 192 -159 327 -159
c91 0 180 33 180 99c0 83 -165 156 -323 226c-204 88 -379 222 -379 465c0 279 265 478 571 478c246 0 438 -116 501 -275l-247 -238c-48 85 -172 122 -249 122c-88 0 -151 -45 -151 -100c0 -74 114 -98 288 -171c252 -106 419 -260 419 -498z" />
    <glyph glyph-name="Scedilla" unicode="&#x15f;" horiz-adv-x="1308" 
d="M1252 476c0 -267 -217 -446 -486 -489l-62 -74c9 0 15 1 24 1c90 0 160 -74 160 -170c0 -166 -201 -320 -442 -318l-99 231c194 -1 266 34 266 77c0 17 -10 46 -63 46c-13 0 -29 -2 -49 -7l-47 60l119 148c-237 18 -443 130 -517 292l259 254c67 -99 192 -159 327 -159
c91 0 180 33 180 99c0 83 -165 156 -323 226c-204 88 -379 222 -379 465c0 279 265 478 571 478c246 0 438 -116 501 -275l-247 -238c-48 85 -172 122 -249 122c-88 0 -151 -45 -151 -100c0 -74 114 -98 288 -171c252 -106 419 -260 419 -498z" />
    <glyph glyph-name="uni0218" unicode="&#x218;" horiz-adv-x="1308" 
d="M643 -22c-265 0 -506 117 -587 295l259 254c67 -99 192 -159 327 -159c91 0 180 33 180 99c0 83 -165 156 -323 226c-204 88 -379 222 -379 465c0 279 265 478 571 478c246 0 438 -116 501 -275l-247 -238c-48 85 -172 122 -249 122c-88 0 -151 -45 -151 -100
c0 -74 114 -98 288 -171c252 -106 419 -260 419 -498c0 -307 -286 -498 -609 -498zM596 -613c-64 0 -107 30 -107 46c48 0 140 31 140 114c0 25 -5 37 -12 46c-65 0 -136 57 -136 134c0 84 78 159 186 159c110 0 185 -82 185 -207c0 -143 -98 -292 -256 -292z" />
    <glyph glyph-name="uni0218" unicode="&#x219;" horiz-adv-x="1308" 
d="M643 -22c-265 0 -506 117 -587 295l259 254c67 -99 192 -159 327 -159c91 0 180 33 180 99c0 83 -165 156 -323 226c-204 88 -379 222 -379 465c0 279 265 478 571 478c246 0 438 -116 501 -275l-247 -238c-48 85 -172 122 -249 122c-88 0 -151 -45 -151 -100
c0 -74 114 -98 288 -171c252 -106 419 -260 419 -498c0 -307 -286 -498 -609 -498zM596 -613c-64 0 -107 30 -107 46c48 0 140 31 140 114c0 25 -5 37 -12 46c-65 0 -136 57 -136 134c0 84 78 159 186 159c110 0 185 -82 185 -207c0 -143 -98 -292 -256 -292z" />
    <glyph glyph-name="uni1E9E" unicode="&#xdf;" horiz-adv-x="1972" 
d="M1561 977c256 -129 369 -300 369 -508c0 -295 -228 -516 -600 -516c-259 0 -455 107 -575 318l271 259c61 -100 166 -193 312 -193c96 0 171 44 171 113c0 91 -128 186 -267 259c-111 57 -308 148 -425 172l251 376c-55 24 -111 36 -166 36c-143 0 -342 -93 -342 -332
v-961h-420v961c0 472 383 696 824 696c255 0 521 -89 676 -210l-306 -380c70 -18 149 -51 227 -90z" />
    <glyph glyph-name="uni1E9E" unicode="&#x1e9e;" horiz-adv-x="1972" 
d="M1561 977c256 -129 369 -300 369 -508c0 -295 -228 -516 -600 -516c-259 0 -455 107 -575 318l271 259c61 -100 166 -193 312 -193c96 0 171 44 171 113c0 91 -128 186 -267 259c-111 57 -308 148 -425 172l251 376c-55 24 -111 36 -166 36c-143 0 -342 -93 -342 -332
v-961h-420v961c0 472 383 696 824 696c255 0 521 -89 676 -210l-306 -380c70 -18 149 -51 227 -90z" />
    <glyph glyph-name="uni018F" unicode="&#x18f;" horiz-adv-x="1864" 
d="M934 -12c-478 0 -864 357 -864 822c0 59 7 131 20 170h1261c-68 160 -228 274 -423 274c-96 0 -193 -26 -297 -92l-256 267c135 125 338 195 551 195c531 1 868 -398 868 -820c0 -460 -384 -816 -860 -816zM932 357c178 0 352 112 419 273h-840
c58 -143 224 -273 421 -273z" />
    <glyph glyph-name="uni018F" unicode="&#x259;" horiz-adv-x="1864" 
d="M934 -12c-478 0 -864 357 -864 822c0 59 7 131 20 170h1261c-68 160 -228 274 -423 274c-96 0 -193 -26 -297 -92l-256 267c135 125 338 195 551 195c531 1 868 -398 868 -820c0 -460 -384 -816 -860 -816zM932 357c178 0 352 112 419 273h-840
c58 -143 224 -273 421 -273z" />
    <glyph glyph-name="T" unicode="T" horiz-adv-x="1286" 
d="M1244 1612v-400h-386v-1212h-429v1212h-387v400h1202z" />
    <glyph glyph-name="T" unicode="t" horiz-adv-x="1286" 
d="M1244 1612v-400h-386v-1212h-429v1212h-387v400h1202z" />
    <glyph glyph-name="Tbar" unicode="&#x166;" horiz-adv-x="1286" 
d="M1244 1212h-386v-291h223v-230h-223v-691h-429v691h-224v230h224v291h-387v400h1202v-400z" />
    <glyph glyph-name="Tbar" unicode="&#x167;" horiz-adv-x="1286" 
d="M1244 1212h-386v-291h223v-230h-223v-691h-429v691h-224v230h224v291h-387v400h1202v-400z" />
    <glyph glyph-name="Tcaron" unicode="&#x164;" horiz-adv-x="1286" 
d="M760 1759h-239l-311 293h304l127 -130l127 130h307zM1244 1612v-400h-386v-1212h-429v1212h-387v400h1202z" />
    <glyph glyph-name="Tcaron" unicode="&#x165;" horiz-adv-x="1286" 
d="M760 1759h-239l-311 293h304l127 -130l127 130h307zM1244 1612v-400h-386v-1212h-429v1212h-387v400h1202z" />
    <glyph glyph-name="uni0162" unicode="&#x162;" horiz-adv-x="1286" 
d="M858 0h-102l-73 -87c9 0 15 1 24 1c90 0 160 -74 160 -170c0 -166 -201 -320 -442 -318l-99 231c194 -1 266 34 266 77c0 17 -10 46 -63 46c-13 0 -29 -2 -49 -7l-47 60l134 167h-138v1212h-387v400h1202v-400h-386v-1212z" />
    <glyph glyph-name="uni0162" unicode="&#x163;" horiz-adv-x="1286" 
d="M858 0h-102l-73 -87c9 0 15 1 24 1c90 0 160 -74 160 -170c0 -166 -201 -320 -442 -318l-99 231c194 -1 266 34 266 77c0 17 -10 46 -63 46c-13 0 -29 -2 -49 -7l-47 60l134 167h-138v1212h-387v400h1202v-400h-386v-1212z" />
    <glyph glyph-name="uni021A" unicode="&#x21a;" horiz-adv-x="1286" 
d="M1244 1612v-400h-386v-1212h-429v1212h-387v400h1202zM646 -114c110 0 185 -82 185 -207c0 -143 -98 -292 -256 -292c-64 0 -107 30 -107 46c48 0 140 31 140 114c0 25 -5 37 -12 46c-65 0 -136 57 -136 134c0 84 78 159 186 159z" />
    <glyph glyph-name="uni021A" unicode="&#x21b;" horiz-adv-x="1286" 
d="M1244 1612v-400h-386v-1212h-429v1212h-387v400h1202zM646 -114c110 0 185 -82 185 -207c0 -143 -98 -292 -256 -292c-64 0 -107 30 -107 46c48 0 140 31 140 114c0 25 -5 37 -12 46c-65 0 -136 57 -136 134c0 84 78 159 186 159z" />
    <glyph glyph-name="U" unicode="U" horiz-adv-x="1590" 
d="M795 -45c-369 0 -669 261 -669 631v1026h431v-1025c0 -134 115 -223 237 -223c121 0 239 91 239 223v1025h431v-1026c0 -370 -300 -631 -669 -631z" />
    <glyph glyph-name="U" unicode="u" horiz-adv-x="1590" 
d="M795 -45c-369 0 -669 261 -669 631v1026h431v-1025c0 -134 115 -223 237 -223c121 0 239 91 239 223v1025h431v-1026c0 -370 -300 -631 -669 -631z" />
    <glyph glyph-name="Uacute" unicode="&#xda;" horiz-adv-x="1590" 
d="M895 1745h-269l172 337h335zM795 -45c-369 0 -669 261 -669 631v1026h431v-1025c0 -134 115 -223 237 -223c121 0 239 91 239 223v1025h431v-1026c0 -370 -300 -631 -669 -631z" />
    <glyph glyph-name="Uacute" unicode="&#xfa;" horiz-adv-x="1590" 
d="M895 1745h-269l172 337h335zM795 -45c-369 0 -669 261 -669 631v1026h431v-1025c0 -134 115 -223 237 -223c121 0 239 91 239 223v1025h431v-1026c0 -370 -300 -631 -669 -631z" />
    <glyph glyph-name="Ucircumflex" unicode="&#xdb;" horiz-adv-x="1590" 
d="M362 1759l311 293h239l315 -293h-307l-127 130l-127 -130h-304zM795 -45c-369 0 -669 261 -669 631v1026h431v-1025c0 -134 115 -223 237 -223c121 0 239 91 239 223v1025h431v-1026c0 -370 -300 -631 -669 -631z" />
    <glyph glyph-name="Ucircumflex" unicode="&#xfb;" horiz-adv-x="1590" 
d="M362 1759l311 293h239l315 -293h-307l-127 130l-127 -130h-304zM795 -45c-369 0 -669 261 -669 631v1026h431v-1025c0 -134 115 -223 237 -223c121 0 239 91 239 223v1025h431v-1026c0 -370 -300 -631 -669 -631z" />
    <glyph glyph-name="Udieresis" unicode="&#xdc;" horiz-adv-x="1590" 
d="M554 1761c-81 0 -148 62 -148 137c0 74 67 139 148 139c79 0 146 -65 146 -139c0 -75 -67 -137 -146 -137zM1035 1761c-80 0 -146 62 -146 137c0 74 67 139 146 139c81 0 148 -65 148 -139c0 -75 -67 -137 -148 -137zM795 -45c-369 0 -669 261 -669 631v1026h431v-1025
c0 -134 115 -223 237 -223c121 0 239 91 239 223v1025h431v-1026c0 -370 -300 -631 -669 -631z" />
    <glyph glyph-name="Udieresis" unicode="&#xfc;" horiz-adv-x="1590" 
d="M554 1761c-81 0 -148 62 -148 137c0 74 67 139 148 139c79 0 146 -65 146 -139c0 -75 -67 -137 -146 -137zM1035 1761c-80 0 -146 62 -146 137c0 74 67 139 146 139c81 0 148 -65 148 -139c0 -75 -67 -137 -148 -137zM795 -45c-369 0 -669 261 -669 631v1026h431v-1025
c0 -134 115 -223 237 -223c121 0 239 91 239 223v1025h431v-1026c0 -370 -300 -631 -669 -631z" />
    <glyph glyph-name="Ugrave" unicode="&#xd9;" horiz-adv-x="1590" 
d="M779 1745l-238 337h335l172 -337h-269zM795 -45c-369 0 -669 261 -669 631v1026h431v-1025c0 -134 115 -223 237 -223c121 0 239 91 239 223v1025h431v-1026c0 -370 -300 -631 -669 -631z" />
    <glyph glyph-name="Ugrave" unicode="&#xf9;" horiz-adv-x="1590" 
d="M779 1745l-238 337h335l172 -337h-269zM795 -45c-369 0 -669 261 -669 631v1026h431v-1025c0 -134 115 -223 237 -223c121 0 239 91 239 223v1025h431v-1026c0 -370 -300 -631 -669 -631z" />
    <glyph glyph-name="Uhungarumlaut" unicode="&#x170;" horiz-adv-x="1590" 
d="M401 1745l137 337h299l-196 -337h-240zM786 1745l208 337h335l-289 -337h-254zM795 -45c-369 0 -669 261 -669 631v1026h431v-1025c0 -134 115 -223 237 -223c121 0 239 91 239 223v1025h431v-1026c0 -370 -300 -631 -669 -631z" />
    <glyph glyph-name="Uhungarumlaut" unicode="&#x171;" horiz-adv-x="1590" 
d="M401 1745l137 337h299l-196 -337h-240zM786 1745l208 337h335l-289 -337h-254zM795 -45c-369 0 -669 261 -669 631v1026h431v-1025c0 -134 115 -223 237 -223c121 0 239 91 239 223v1025h431v-1026c0 -370 -300 -631 -669 -631z" />
    <glyph glyph-name="Umacron" unicode="&#x16a;" horiz-adv-x="1590" 
d="M467 1801v201h655v-201h-655zM795 -45c-369 0 -669 261 -669 631v1026h431v-1025c0 -134 115 -223 237 -223c121 0 239 91 239 223v1025h431v-1026c0 -370 -300 -631 -669 -631z" />
    <glyph glyph-name="Umacron" unicode="&#x16b;" horiz-adv-x="1590" 
d="M467 1801v201h655v-201h-655zM795 -45c-369 0 -669 261 -669 631v1026h431v-1025c0 -134 115 -223 237 -223c121 0 239 91 239 223v1025h431v-1026c0 -370 -300 -631 -669 -631z" />
    <glyph glyph-name="Uogonek" unicode="&#x172;" horiz-adv-x="1590" 
d="M1033 1612h431v-1026c0 -324 -230 -565 -536 -619c-97 -78 -140 -130 -140 -189c0 -34 17 -65 58 -65c22 0 67 6 119 19l39 -270c-71 -15 -135 -22 -193 -22c-209 0 -321 93 -321 249c0 115 61 215 150 282c-294 61 -514 298 -514 615v1026h431v-1025
c0 -134 115 -223 237 -223c121 0 239 91 239 223v1025z" />
    <glyph glyph-name="Uogonek" unicode="&#x173;" horiz-adv-x="1590" 
d="M1033 1612h431v-1026c0 -324 -230 -565 -536 -619c-97 -78 -140 -130 -140 -189c0 -34 17 -65 58 -65c22 0 67 6 119 19l39 -270c-71 -15 -135 -22 -193 -22c-209 0 -321 93 -321 249c0 115 61 215 150 282c-294 61 -514 298 -514 615v1026h431v-1025
c0 -134 115 -223 237 -223c121 0 239 91 239 223v1025z" />
    <glyph glyph-name="Uring" unicode="&#x16e;" horiz-adv-x="1590" 
d="M796 1707c-133 0 -243 105 -243 234c0 128 110 234 243 234c131 0 241 -107 241 -234s-110 -234 -241 -234zM796 1854c49 0 89 38 89 85c0 48 -40 87 -89 87c-50 0 -90 -39 -90 -87c0 -47 40 -85 90 -85zM795 -45c-369 0 -669 261 -669 631v1026h431v-1025
c0 -134 115 -223 237 -223c121 0 239 91 239 223v1025h431v-1026c0 -370 -300 -631 -669 -631z" />
    <glyph glyph-name="Uring" unicode="&#x16f;" horiz-adv-x="1590" 
d="M796 1707c-133 0 -243 105 -243 234c0 128 110 234 243 234c131 0 241 -107 241 -234s-110 -234 -241 -234zM796 1854c49 0 89 38 89 85c0 48 -40 87 -89 87c-50 0 -90 -39 -90 -87c0 -47 40 -85 90 -85zM795 -45c-369 0 -669 261 -669 631v1026h431v-1025
c0 -134 115 -223 237 -223c121 0 239 91 239 223v1025h431v-1026c0 -370 -300 -631 -669 -631z" />
    <glyph glyph-name="V" unicode="V" horiz-adv-x="1719" 
d="M1229 1612h469l-743 -1629h-194l-740 1629h463l372 -873z" />
    <glyph glyph-name="V" unicode="v" horiz-adv-x="1719" 
d="M1229 1612h469l-743 -1629h-194l-740 1629h463l372 -873z" />
    <glyph glyph-name="W" unicode="W" horiz-adv-x="2105" 
d="M560 -10l-539 1622h463l223 -738l330 735h32l330 -733l222 736h463l-538 -1622h-118l-377 797l-374 -797h-117z" />
    <glyph glyph-name="W" unicode="w" horiz-adv-x="2105" 
d="M560 -10l-539 1622h463l223 -738l330 735h32l330 -733l222 736h463l-538 -1622h-118l-377 797l-374 -797h-117z" />
    <glyph glyph-name="Wacute" unicode="&#x1e82;" horiz-adv-x="2105" 
d="M1153 1745h-269l172 337h335zM560 -10l-539 1622h463l223 -738l330 735h32l330 -733l222 736h463l-538 -1622h-118l-377 797l-374 -797h-117z" />
    <glyph glyph-name="Wacute" unicode="&#x1e83;" horiz-adv-x="2105" 
d="M1153 1745h-269l172 337h335zM560 -10l-539 1622h463l223 -738l330 735h32l330 -733l222 736h463l-538 -1622h-118l-377 797l-374 -797h-117z" />
    <glyph glyph-name="Wcircumflex" unicode="&#x174;" horiz-adv-x="2105" 
d="M621 1759l311 293h239l315 -293h-307l-127 130l-127 -130h-304zM560 -10l-539 1622h463l223 -738l330 735h32l330 -733l222 736h463l-538 -1622h-118l-377 797l-374 -797h-117z" />
    <glyph glyph-name="Wcircumflex" unicode="&#x175;" horiz-adv-x="2105" 
d="M621 1759l311 293h239l315 -293h-307l-127 130l-127 -130h-304zM560 -10l-539 1622h463l223 -738l330 735h32l330 -733l222 736h463l-538 -1622h-118l-377 797l-374 -797h-117z" />
    <glyph glyph-name="Wdieresis" unicode="&#x1e84;" horiz-adv-x="2105" 
d="M813 1761c-81 0 -148 62 -148 137c0 74 67 139 148 139c79 0 146 -65 146 -139c0 -75 -67 -137 -146 -137zM1294 1761c-80 0 -146 62 -146 137c0 74 67 139 146 139c81 0 148 -65 148 -139c0 -75 -67 -137 -148 -137zM560 -10l-539 1622h463l223 -738l330 735h32
l330 -733l222 736h463l-538 -1622h-118l-377 797l-374 -797h-117z" />
    <glyph glyph-name="Wdieresis" unicode="&#x1e85;" horiz-adv-x="2105" 
d="M813 1761c-81 0 -148 62 -148 137c0 74 67 139 148 139c79 0 146 -65 146 -139c0 -75 -67 -137 -146 -137zM1294 1761c-80 0 -146 62 -146 137c0 74 67 139 146 139c81 0 148 -65 148 -139c0 -75 -67 -137 -148 -137zM560 -10l-539 1622h463l223 -738l330 735h32
l330 -733l222 736h463l-538 -1622h-118l-377 797l-374 -797h-117z" />
    <glyph glyph-name="Wgrave" unicode="&#x1e80;" horiz-adv-x="2105" 
d="M1038 1745l-238 337h335l172 -337h-269zM560 -10l-539 1622h463l223 -738l330 735h32l330 -733l222 736h463l-538 -1622h-118l-377 797l-374 -797h-117z" />
    <glyph glyph-name="Wgrave" unicode="&#x1e81;" horiz-adv-x="2105" 
d="M1038 1745l-238 337h335l172 -337h-269zM560 -10l-539 1622h463l223 -738l330 735h32l330 -733l222 736h463l-538 -1622h-118l-377 797l-374 -797h-117z" />
    <glyph glyph-name="X" unicode="X" horiz-adv-x="1569" 
d="M21 0l511 837l-484 775h490l247 -426l246 426h490l-486 -774l513 -838h-493l-271 476l-270 -476h-493z" />
    <glyph glyph-name="X" unicode="x" horiz-adv-x="1569" 
d="M21 0l511 837l-484 775h490l247 -426l246 426h490l-486 -774l513 -838h-493l-271 476l-270 -476h-493z" />
    <glyph glyph-name="Y" unicode="Y" horiz-adv-x="1462" 
d="M518 0v696l-497 916h485l225 -467l224 467h486l-498 -916v-696h-425z" />
    <glyph glyph-name="Y" unicode="y" horiz-adv-x="1462" 
d="M518 0v696l-497 916h485l225 -467l224 467h486l-498 -916v-696h-425z" />
    <glyph glyph-name="Yacute" unicode="&#xdd;" horiz-adv-x="1462" 
d="M832 1745h-269l172 337h335zM518 0v696l-497 916h485l225 -467l224 467h486l-498 -916v-696h-425z" />
    <glyph glyph-name="Yacute" unicode="&#xfd;" horiz-adv-x="1462" 
d="M832 1745h-269l172 337h335zM518 0v696l-497 916h485l225 -467l224 467h486l-498 -916v-696h-425z" />
    <glyph glyph-name="Ycircumflex" unicode="&#x176;" horiz-adv-x="1462" 
d="M299 1759l311 293h239l315 -293h-307l-127 130l-127 -130h-304zM518 0v696l-497 916h485l225 -467l224 467h486l-498 -916v-696h-425z" />
    <glyph glyph-name="Ycircumflex" unicode="&#x177;" horiz-adv-x="1462" 
d="M299 1759l311 293h239l315 -293h-307l-127 130l-127 -130h-304zM518 0v696l-497 916h485l225 -467l224 467h486l-498 -916v-696h-425z" />
    <glyph glyph-name="Ydieresis" unicode="&#xff;" horiz-adv-x="1462" 
d="M491 1761c-81 0 -148 62 -148 137c0 74 67 139 148 139c79 0 146 -65 146 -139c0 -75 -67 -137 -146 -137zM972 1761c-80 0 -146 62 -146 137c0 74 67 139 146 139c81 0 148 -65 148 -139c0 -75 -67 -137 -148 -137zM518 0v696l-497 916h485l225 -467l224 467h486
l-498 -916v-696h-425z" />
    <glyph glyph-name="Ydieresis" unicode="&#x178;" horiz-adv-x="1462" 
d="M491 1761c-81 0 -148 62 -148 137c0 74 67 139 148 139c79 0 146 -65 146 -139c0 -75 -67 -137 -146 -137zM972 1761c-80 0 -146 62 -146 137c0 74 67 139 146 139c81 0 148 -65 148 -139c0 -75 -67 -137 -148 -137zM518 0v696l-497 916h485l225 -467l224 467h486
l-498 -916v-696h-425z" />
    <glyph glyph-name="Ygrave" unicode="&#x1ef2;" horiz-adv-x="1462" 
d="M716 1745l-238 337h335l172 -337h-269zM518 0v696l-497 916h485l225 -467l224 467h486l-498 -916v-696h-425z" />
    <glyph glyph-name="Ygrave" unicode="&#x1ef3;" horiz-adv-x="1462" 
d="M716 1745l-238 337h335l172 -337h-269zM518 0v696l-497 916h485l225 -467l224 467h486l-498 -916v-696h-425z" />
    <glyph glyph-name="Z" unicode="Z" horiz-adv-x="1387" 
d="M84 0l545 1212h-545v400h1219l-544 -1210h544v-402h-1219z" />
    <glyph glyph-name="Z" unicode="z" horiz-adv-x="1387" 
d="M84 0l545 1212h-545v400h1219l-544 -1210h544v-402h-1219z" />
    <glyph glyph-name="Zacute" unicode="&#x179;" horiz-adv-x="1387" 
d="M794 1745h-269l172 337h335zM84 0l545 1212h-545v400h1219l-544 -1210h544v-402h-1219z" />
    <glyph glyph-name="Zacute" unicode="&#x17a;" horiz-adv-x="1387" 
d="M794 1745h-269l172 337h335zM84 0l545 1212h-545v400h1219l-544 -1210h544v-402h-1219z" />
    <glyph glyph-name="Zcaron" unicode="&#x17d;" horiz-adv-x="1387" 
d="M261 2052h304l127 -130l127 130h307l-315 -293h-239zM84 0l545 1212h-545v400h1219l-544 -1210h544v-402h-1219z" />
    <glyph glyph-name="Zcaron" unicode="&#x17e;" horiz-adv-x="1387" 
d="M261 2052h304l127 -130l127 130h307l-315 -293h-239zM84 0l545 1212h-545v400h1219l-544 -1210h544v-402h-1219z" />
    <glyph glyph-name="Zdotaccent" unicode="&#x17b;" horiz-adv-x="1387" 
d="M694 1759c-94 0 -169 71 -169 157s76 161 169 161s170 -75 170 -160c0 -88 -78 -158 -170 -158zM84 0l545 1212h-545v400h1219l-544 -1210h544v-402h-1219z" />
    <glyph glyph-name="Zdotaccent" unicode="&#x17c;" horiz-adv-x="1387" 
d="M694 1759c-94 0 -169 71 -169 157s76 161 169 161s170 -75 170 -160c0 -88 -78 -158 -170 -158zM84 0l545 1212h-545v400h1219l-544 -1210h544v-402h-1219z" />
    <glyph glyph-name="i" unicode="i" horiz-adv-x="708" 
d="M140 0v1612h428v-1612h-428z" />
    <glyph glyph-name="dotlessi" unicode="&#x131;" horiz-adv-x="708" 
d="M140 0v1612h428v-1612h-428z" />
    <glyph glyph-name="i.loclTRK" horiz-adv-x="708" 
d="M355 1759c-94 0 -169 71 -169 157s76 161 169 161s170 -75 170 -160c0 -88 -78 -158 -170 -158zM140 0v1612h428v-1612h-428z" />
    <glyph glyph-name="zero" unicode="0" horiz-adv-x="1565" 
d="M786 -33c-437 0 -716 333 -716 839c0 507 279 840 716 840c433 0 709 -333 709 -839c0 -507 -276 -840 -709 -840zM783 375c174 0 283 172 283 430c0 261 -109 435 -284 435s-285 -173 -285 -433c0 -259 110 -432 286 -432z" />
    <glyph glyph-name="zero.lf" horiz-adv-x="1490" 
d="M786 -33c-437 0 -716 333 -716 839c0 507 279 840 716 840c433 0 709 -333 709 -839c0 -507 -276 -840 -709 -840zM783 375c174 0 283 172 283 430c0 261 -109 435 -284 435s-285 -173 -285 -433c0 -259 110 -432 286 -432z" />
    <glyph glyph-name="zero.tf" horiz-adv-x="1543" 
d="M800 -33c-437 0 -715 333 -715 839c0 507 278 840 715 840c433 0 710 -333 710 -839c0 -507 -277 -840 -710 -840zM797 375c174 0 283 172 283 430c0 261 -109 435 -283 435c-175 0 -285 -173 -285 -433c0 -259 110 -432 285 -432z" />
    <glyph glyph-name="one" unicode="1" horiz-adv-x="795" 
d="M530 1622h125v-1622h-428v1118l-157 -38v421z" />
    <glyph glyph-name="one.lf" horiz-adv-x="755" 
d="M530 1622h125v-1622h-428v1118l-157 -38v421z" />
    <glyph glyph-name="one.tf" horiz-adv-x="1543" 
d="M976 375h290v-375h-1004v375h286v743l-157 -38v421l459 121h126v-1247z" />
    <glyph glyph-name="two" unicode="2" horiz-adv-x="1433" 
d="M852 393h511v-393h-1293v155c612 513 844 736 844 886c0 108 -84 201 -191 201c-142 0 -268 -118 -268 -263l-348 115c0 292 274 552 617 552s620 -271 620 -588c0 -264 -227 -518 -492 -665z" />
    <glyph glyph-name="two.lf" horiz-adv-x="1386" 
d="M852 393h511v-393h-1293v155c612 513 844 736 844 886c0 108 -84 201 -191 201c-142 0 -268 -118 -268 -263l-348 115c0 292 274 552 617 552s620 -271 620 -588c0 -264 -227 -518 -492 -665z" />
    <glyph glyph-name="two.tf" horiz-adv-x="1543" 
d="M910 393h510v-393h-1292v155c611 513 844 736 844 886c0 108 -84 201 -192 201c-142 0 -268 -118 -268 -263l-347 115c0 292 273 552 616 552s620 -271 620 -588c0 -264 -227 -518 -491 -665z" />
    <glyph glyph-name="three" unicode="3" horiz-adv-x="1311" 
d="M968 918c155 -64 273 -219 273 -421c0 -308 -270 -522 -585 -522c-302 0 -548 211 -586 454l356 85c29 -92 123 -139 206 -139c105 0 176 74 176 176c0 128 -121 245 -366 247l49 190c154 0 245 79 245 173c0 71 -51 122 -118 122c-57 0 -110 -37 -134 -105l-356 78
c57 234 250 407 519 407c282 0 504 -185 504 -433c0 -134 -69 -259 -183 -312z" />
    <glyph glyph-name="three.lf" horiz-adv-x="1276" 
d="M968 918c155 -64 273 -219 273 -421c0 -308 -270 -522 -585 -522c-302 0 -548 211 -586 454l356 85c29 -92 123 -139 206 -139c105 0 176 74 176 176c0 128 -121 245 -366 247l49 190c154 0 245 79 245 173c0 71 -51 122 -118 122c-57 0 -110 -37 -134 -105l-356 78
c57 234 250 407 519 407c282 0 504 -185 504 -433c0 -134 -69 -259 -183 -312z" />
    <glyph glyph-name="three.tf" horiz-adv-x="1543" 
d="M1089 918c155 -64 273 -219 273 -421c0 -308 -270 -522 -585 -522c-302 0 -548 211 -586 454l356 85c29 -92 123 -139 206 -139c105 0 176 74 176 176c0 128 -121 245 -366 247l49 190c154 0 245 79 245 173c0 71 -51 122 -118 122c-57 0 -110 -37 -134 -105l-356 78
c57 234 250 407 519 407c282 0 504 -185 504 -433c0 -134 -69 -259 -183 -312z" />
    <glyph glyph-name="four" unicode="4" horiz-adv-x="1506" 
d="M1464 664v-383h-157v-281h-427v281h-859l544 1340l432 -2l-379 -955h262v352h427v-352h157z" />
    <glyph glyph-name="four.lf" horiz-adv-x="1525" 
d="M1464 664v-383h-157v-281h-427v281h-859l544 1340l432 -2l-379 -955h262v352h427v-352h157z" />
    <glyph glyph-name="four.tf" horiz-adv-x="1543" 
d="M1464 664v-383h-157v-281h-427v281h-859l544 1340l432 -2l-379 -955h262v352h427v-352h157z" />
    <glyph glyph-name="five" unicode="5" horiz-adv-x="1374" 
d="M768 1104c322 0 536 -239 536 -548c0 -349 -273 -581 -632 -581c-242 0 -474 110 -602 361l349 154c65 -81 135 -122 225 -122c115 0 215 65 215 199c0 128 -95 189 -224 189c-102 0 -230 -37 -293 -101l-193 105l125 853h884v-382h-583l-26 -175c59 31 135 48 219 48z
" />
    <glyph glyph-name="five.lf" horiz-adv-x="1320" 
d="M768 1104c322 0 536 -239 536 -548c0 -349 -273 -581 -632 -581c-242 0 -474 110 -602 361l349 154c65 -81 135 -122 225 -122c115 0 215 65 215 199c0 128 -95 189 -224 189c-102 0 -230 -37 -293 -101l-193 105l125 853h884v-382h-583l-26 -175c59 31 135 48 219 48z
" />
    <glyph glyph-name="five.tf" horiz-adv-x="1543" 
d="M856 1104c322 0 536 -239 536 -548c0 -349 -273 -581 -632 -581c-242 0 -474 110 -602 361l349 154c65 -81 135 -122 225 -122c115 0 215 65 215 199c0 128 -95 189 -224 189c-102 0 -230 -37 -293 -101l-193 105l125 853h884v-382h-583l-26 -175c59 31 135 48 219 48z
" />
    <glyph glyph-name="six" unicode="6" horiz-adv-x="1359" 
d="M789 1030c263 0 500 -211 500 -499c0 -300 -259 -562 -614 -562c-326 0 -605 183 -605 556c0 139 39 288 529 1087l488 -2l-355 -584c19 3 38 4 57 4zM681 361c100 0 184 77 184 183c0 107 -83 187 -183 187c-99 -1 -182 -79 -182 -188c0 -107 81 -182 181 -182z" />
    <glyph glyph-name="six.lf" horiz-adv-x="1339" 
d="M789 1030c263 0 500 -211 500 -499c0 -300 -259 -562 -614 -562c-326 0 -605 183 -605 556c0 139 39 288 529 1087l488 -2l-355 -584c19 3 38 4 57 4zM681 361c100 0 184 77 184 183c0 107 -83 187 -183 187c-99 -1 -182 -79 -182 -188c0 -107 81 -182 181 -182z" />
    <glyph glyph-name="six.tf" horiz-adv-x="1543" 
d="M875 1030c263 0 500 -211 500 -499c0 -300 -259 -562 -614 -562c-326 0 -605 183 -605 556c0 139 39 288 529 1087l488 -2l-355 -584c19 3 38 4 57 4zM767 361c100 0 184 77 184 183c0 107 -83 187 -183 187c-99 -1 -182 -79 -182 -188c0 -107 81 -182 181 -182z" />
    <glyph glyph-name="seven" unicode="7" horiz-adv-x="1248" 
d="M42 1612h1185v-74l-614 -1538h-448l465 1219h-588v393z" />
    <glyph glyph-name="seven.lf" horiz-adv-x="1266" 
d="M42 1612h1185v-74l-614 -1538h-448l465 1219h-588v393z" />
    <glyph glyph-name="seven.tf" horiz-adv-x="1543" 
d="M220 1612h1184v-74l-613 -1538h-449l465 1219h-587v393z" />
    <glyph glyph-name="eight" unicode="8" horiz-adv-x="1375" 
d="M687 -33c-365 0 -617 221 -617 522c0 260 190 400 301 422c-87 18 -209 130 -209 304c0 233 222 431 526 431c311 0 529 -203 529 -429c0 -182 -143 -285 -219 -306c104 -24 307 -155 307 -424c0 -296 -247 -520 -618 -520zM689 1027c74 0 143 52 143 137
c0 86 -68 134 -143 134c-74 0 -141 -49 -141 -133c0 -81 64 -138 141 -138zM687 352c103 0 200 75 200 188c0 112 -96 192 -199 192c-104 0 -199 -83 -199 -195c0 -113 96 -185 198 -185z" />
    <glyph glyph-name="eight.lf" horiz-adv-x="1272" 
d="M687 -33c-365 0 -617 221 -617 522c0 260 190 400 301 422c-87 18 -209 130 -209 304c0 233 222 431 526 431c311 0 529 -203 529 -429c0 -182 -143 -285 -219 -306c104 -24 307 -155 307 -424c0 -296 -247 -520 -618 -520zM689 1027c74 0 143 52 143 137
c0 86 -68 134 -143 134c-74 0 -141 -49 -141 -133c0 -81 64 -138 141 -138zM687 352c103 0 200 75 200 188c0 112 -96 192 -199 192c-104 0 -199 -83 -199 -195c0 -113 96 -185 198 -185z" />
    <glyph glyph-name="eight.tf" horiz-adv-x="1543" 
d="M788 -33c-365 0 -617 221 -617 522c0 260 189 400 301 422c-87 18 -210 130 -210 304c0 233 222 431 527 431c311 0 528 -203 528 -429c0 -182 -142 -285 -218 -306c103 -24 307 -155 307 -424c0 -296 -247 -520 -618 -520zM790 1027c74 0 142 52 142 137
c0 86 -68 134 -142 134s-142 -49 -142 -133c0 -81 64 -138 142 -138zM787 352c103 0 200 75 200 188c0 112 -96 192 -199 192c-104 0 -198 -83 -198 -195c0 -113 96 -185 197 -185z" />
    <glyph glyph-name="nine" unicode="9" horiz-adv-x="1359" 
d="M680 1648c346 0 609 -261 609 -578c0 -186 -38 -242 -527 -1068h-491l336 557c-12 -1 -23 -2 -35 -2c-269 0 -502 247 -502 518c0 314 266 573 610 573zM679 886c98 0 182 80 182 182c0 111 -84 188 -182 188c-101 0 -182 -77 -182 -188c0 -100 83 -182 182 -182z" />
    <glyph glyph-name="nine.lf" horiz-adv-x="1339" 
d="M680 1648c346 0 609 -261 609 -578c0 -186 -38 -242 -527 -1068h-491l336 557c-12 -1 -23 -2 -35 -2c-269 0 -502 247 -502 518c0 314 266 573 610 573zM679 886c98 0 182 80 182 182c0 111 -84 188 -182 188c-101 0 -182 -77 -182 -188c0 -100 83 -182 182 -182z" />
    <glyph glyph-name="nine.tf" horiz-adv-x="1543" 
d="M771 1648c346 0 609 -261 609 -578c0 -186 -38 -242 -527 -1068h-491l336 557c-12 -1 -23 -2 -35 -2c-269 0 -502 247 -502 518c0 314 266 573 610 573zM770 886c98 0 182 80 182 182c0 111 -84 188 -182 188c-101 0 -182 -77 -182 -188c0 -100 83 -182 182 -182z" />
    <glyph glyph-name="period" unicode="." horiz-adv-x="739" 
d="M370 -57c-146 0 -265 111 -265 249c0 135 121 248 265 248c143 0 264 -114 264 -248c0 -136 -120 -249 -264 -249z" />
    <glyph glyph-name="comma" unicode="," horiz-adv-x="767" 
d="M290 -384c-98 0 -166 49 -166 77c70 0 197 50 197 184c0 40 -8 60 -17 75c-97 0 -199 96 -199 225c0 139 117 263 280 263c170 0 277 -135 277 -343c0 -236 -137 -481 -372 -481z" />
    <glyph glyph-name="colon" unicode=":" horiz-adv-x="710" 
d="M355 712c-137 0 -250 105 -250 235s113 236 250 236c136 0 250 -107 250 -236c0 -128 -114 -235 -250 -235zM355 -12c-137 0 -250 107 -250 236s114 236 250 236c135 0 250 -108 250 -236c0 -129 -114 -236 -250 -236z" />
    <glyph glyph-name="semicolon" unicode=";" horiz-adv-x="752" 
d="M355 707c-137 0 -250 105 -250 235s113 236 250 236c136 0 250 -107 250 -236c0 -128 -114 -235 -250 -235zM300 -350c-94 0 -158 47 -158 73c66 0 187 48 187 175c0 39 -8 57 -16 72c-93 0 -189 90 -189 213c0 132 110 250 266 250c161 0 263 -129 263 -326
c0 -224 -130 -457 -353 -457z" />
    <glyph glyph-name="ellipsis" unicode="&#x2026;" horiz-adv-x="2551" 
d="M465 -57c-146 0 -265 111 -265 249c0 135 121 248 265 248c143 0 264 -114 264 -248c0 -136 -120 -249 -264 -249zM1286 -57c-145 0 -264 111 -264 249c0 135 120 248 264 248c143 0 265 -114 265 -248c0 -136 -120 -249 -265 -249zM2087 -57c-146 0 -265 111 -265 249
c0 135 121 248 265 248c143 0 264 -114 264 -248c0 -136 -120 -249 -264 -249z" />
    <glyph glyph-name="exclam" unicode="!" horiz-adv-x="796" 
d="M221 563l-72 1049h496l-69 -1049h-355zM399 -57c-137 0 -250 105 -250 236c0 128 114 231 248 231c138 0 252 -109 252 -236c0 -129 -114 -231 -250 -231z" />
    <glyph glyph-name="exclamdown" unicode="&#xa1;" horiz-adv-x="796" 
d="M397 1219c138 0 250 -105 250 -235c0 -128 -114 -231 -247 -231c-139 0 -253 108 -253 236s114 230 250 230zM576 600l71 -1050h-496l70 1050h355z" />
    <glyph glyph-name="question" unicode="?" horiz-adv-x="1111" 
d="M295 561c-2 12 -2 24 -2 74c0 181 97 297 284 427c37 26 75 68 75 119c0 84 -56 135 -159 135c-123 0 -228 -77 -272 -173l-151 315c26 41 112 223 448 223c320 0 523 -239 523 -422c0 -158 -28 -244 -142 -347c-93 -86 -207 -129 -207 -264c0 -56 1 -70 5 -86zM498 -57
c-140 0 -250 108 -250 236s113 231 248 231c138 0 252 -109 252 -236c0 -129 -114 -231 -250 -231z" />
    <glyph glyph-name="questiondown" unicode="&#xbf;" horiz-adv-x="1111" 
d="M613 1259c140 0 250 -107 250 -235s-113 -231 -248 -231c-138 0 -252 109 -252 236c0 129 114 230 250 230zM816 642c2 -12 2 -24 2 -74c0 -181 -97 -297 -284 -427c-37 -26 -75 -68 -75 -119c0 -85 56 -135 159 -135c123 0 228 76 272 173l151 -315
c-26 -41 -112 -223 -448 -223c-320 0 -523 239 -523 421c0 159 28 245 142 348c93 86 207 129 207 264c0 56 -1 70 -5 86z" />
    <glyph glyph-name="periodcentered" unicode="&#xb7;" horiz-adv-x="739" 
d="M370 537c-146 0 -265 110 -265 248c0 135 121 248 265 248c143 0 264 -114 264 -248c0 -136 -120 -248 -264 -248z" />
    <glyph glyph-name="bullet" unicode="&#x2022;" horiz-adv-x="1225" 
d="M611 406c-235 0 -411 164 -411 383c0 221 177 387 413 387s412 -165 412 -386c0 -219 -177 -384 -414 -384z" />
    <glyph glyph-name="asterisk" unicode="*" horiz-adv-x="940" 
d="M330 945l52 236l-166 -157l-146 203l264 94l-264 89l146 204l166 -155l-52 234h279l-52 -234l166 155l147 -204l-264 -97l264 -86l-147 -203l-166 155l52 -234h-279z" />
    <glyph glyph-name="numbersign" unicode="#" horiz-adv-x="1616" 
d="M1528 912h-220l-35 -269h219l-38 -297h-219l-45 -346h-341l45 346h-280l-45 -346h-342l45 346h-222l38 297h223l35 269h-222l40 297h221l52 403h341l-52 -403h280l52 403h341l-52 -403h219zM932 643l35 269h-280l-35 -269h280z" />
    <glyph glyph-name="slash" unicode="/" horiz-adv-x="1072" 
d="M21 -120l656 1852h374l-658 -1852h-372z" />
    <glyph glyph-name="backslash" unicode="\" horiz-adv-x="1072" 
d="M1051 -120h-371l-658 1852h373z" />
    <glyph glyph-name="twodotenleader" unicode="&#x2025;" horiz-adv-x="1653" 
d="M465 -57c-146 0 -265 111 -265 249c0 135 121 248 265 248c143 0 264 -114 264 -248c0 -136 -120 -249 -264 -249zM1188 -57c-145 0 -264 111 -264 249c0 135 120 248 264 248c143 0 265 -114 265 -248c0 -136 -120 -249 -265 -249z" />
    <glyph glyph-name="parenleft" unicode="(" horiz-adv-x="756" 
d="M344 -120c-206 272 -274 637 -274 927s67 653 273 925h341c-151 -255 -229 -671 -229 -925c0 -255 79 -673 231 -927h-342z" />
    <glyph glyph-name="parenright" unicode=")" horiz-adv-x="756" 
d="M412 -120h-342c152 254 231 672 231 927c0 254 -78 670 -229 925h341c206 -272 273 -635 273 -925s-68 -655 -274 -927z" />
    <glyph glyph-name="braceleft" unicode="{" horiz-adv-x="976" 
d="M619 -120c-172 0 -312 124 -312 277v223c0 177 -112 323 -237 323v219c125 0 237 145 237 323v211c0 152 140 276 312 276h287v-299l-135 -4c-60 -2 -98 -70 -98 -151v-65c0 -220 -103 -400 -229 -400c126 0 229 -180 229 -401v-77c0 -86 38 -156 99 -156h134v-299h-287z
" />
    <glyph glyph-name="braceright" unicode="}" horiz-adv-x="976" 
d="M358 -120h-287v299h134c60 0 99 70 99 156v77c0 221 103 401 228 401c-125 0 -228 180 -228 400v65c0 81 -39 149 -99 151l-134 4v299h287c172 0 312 -124 312 -276v-211c0 -178 112 -323 236 -323v-219c-124 0 -236 -146 -236 -323v-223c0 -153 -141 -277 -312 -277z
" />
    <glyph glyph-name="bracketleft" unicode="[" horiz-adv-x="843" 
d="M773 1433h-267v-1254h267v-299h-633v1852h633v-299z" />
    <glyph glyph-name="bracketright" unicode="]" horiz-adv-x="843" 
d="M703 1732v-1852h-633v299h267v1254h-267v299h633z" />
    <glyph glyph-name="hyphen" unicode="-" horiz-adv-x="990" 
d="M70 615v351h850v-351h-850z" />
    <glyph glyph-name="endash" unicode="&#x2013;" horiz-adv-x="1543" 
d="M75 615v351h1393v-351h-1393z" />
    <glyph glyph-name="emdash" unicode="&#x2014;" horiz-adv-x="2048" 
d="M65 615v351h1918v-351h-1918z" />
    <glyph glyph-name="figuredash" unicode="&#x2012;" horiz-adv-x="1108" 
d="M70 615v351h968v-351h-968z" />
    <glyph glyph-name="underscore" unicode="_" horiz-adv-x="1300" 
d="M0 -136v273h1300v-273h-1300z" />
    <glyph glyph-name="quotesinglbase" unicode="&#x201a;" horiz-adv-x="647" 
d="M239 -317c-89 0 -151 44 -151 70c63 0 179 46 179 167c0 37 -7 55 -16 69c-88 0 -181 86 -181 203c0 127 106 240 255 240c154 0 252 -123 252 -312c0 -214 -125 -437 -338 -437z" />
    <glyph glyph-name="quotedblbase" unicode="&#x201e;" horiz-adv-x="1248" 
d="M239 -320c-89 0 -151 44 -151 70c63 0 179 46 179 167c0 37 -7 55 -16 69c-88 0 -181 86 -181 203c0 127 106 240 255 240c154 0 252 -123 252 -312c0 -214 -125 -437 -338 -437zM840 -320c-89 0 -151 44 -151 70c63 0 179 46 179 167c0 37 -7 55 -16 69
c-88 0 -181 86 -181 203c0 127 106 240 255 240c154 0 252 -123 252 -312c0 -214 -125 -437 -338 -437z" />
    <glyph glyph-name="quotedblleft" unicode="&#x201c;" horiz-adv-x="1248" 
d="M408 1643c89 0 151 -44 151 -70c-64 0 -179 -46 -179 -167c0 -37 7 -55 15 -69c89 0 181 -86 181 -203c0 -127 -106 -240 -254 -240c-155 0 -252 123 -252 312c0 214 124 437 338 437zM1009 1643c89 0 151 -44 151 -70c-64 0 -179 -46 -179 -167c0 -37 7 -55 15 -69
c89 0 181 -86 181 -203c0 -127 -106 -240 -254 -240c-155 0 -252 123 -252 312c0 214 124 437 338 437z" />
    <glyph glyph-name="quotedblright" unicode="&#x201d;" horiz-adv-x="1248" 
d="M239 902c-89 0 -151 45 -151 70c63 0 179 46 179 168c0 37 -7 54 -16 68c-88 0 -181 87 -181 204c0 127 106 239 255 239c154 0 252 -123 252 -312c0 -214 -125 -437 -338 -437zM840 902c-89 0 -151 45 -151 70c63 0 179 46 179 168c0 37 -7 54 -16 68
c-88 0 -181 87 -181 204c0 127 106 239 255 239c154 0 252 -123 252 -312c0 -214 -125 -437 -338 -437z" />
    <glyph glyph-name="quoteleft" unicode="&#x2018;" horiz-adv-x="647" 
d="M408 1643c89 0 151 -44 151 -70c-64 0 -179 -46 -179 -167c0 -37 7 -55 15 -69c89 0 181 -86 181 -203c0 -127 -106 -240 -254 -240c-155 0 -252 123 -252 312c0 214 124 437 338 437z" />
    <glyph glyph-name="quoteright" unicode="&#x2019;" horiz-adv-x="647" 
d="M239 912c-89 0 -151 45 -151 70c63 0 179 46 179 168c0 37 -7 54 -16 68c-88 0 -181 87 -181 204c0 127 106 239 255 239c154 0 252 -123 252 -312c0 -214 -125 -437 -338 -437z" />
    <glyph glyph-name="quotereversed" unicode="&#x201b;" horiz-adv-x="647" 
d="M408 916c-214 0 -338 223 -338 437c0 189 97 312 252 312c148 0 254 -112 254 -239c0 -117 -92 -204 -181 -204c-8 -14 -15 -31 -15 -68c0 -122 115 -168 179 -168c0 -25 -62 -70 -151 -70z" />
    <glyph glyph-name="guillemotleft" unicode="&#xab;" horiz-adv-x="1362" 
d="M732 1277l-288 -487l288 -486l-266 -51l-396 537l396 538zM1292 1277l-288 -487l288 -486l-266 -51l-396 537l396 538z" />
    <glyph glyph-name="guillemotright" unicode="&#xbb;" horiz-adv-x="1362" 
d="M337 1328l395 -538l-395 -537l-267 51l288 486l-288 487zM897 1328l395 -538l-395 -537l-267 51l288 486l-288 487z" />
    <glyph glyph-name="guilsinglleft" unicode="&#x2039;" horiz-adv-x="802" 
d="M732 1277l-288 -487l288 -486l-266 -51l-396 537l396 538z" />
    <glyph glyph-name="guilsinglright" unicode="&#x203a;" horiz-adv-x="802" 
d="M337 1328l395 -538l-395 -537l-267 51l288 486l-288 487z" />
    <glyph glyph-name="quotedbl" unicode="&#x22;" horiz-adv-x="1078" 
d="M167 1078l-97 575h430l-98 -575h-235zM676 1078l-97 575h429l-97 -575h-235z" />
    <glyph glyph-name="quotesingle" unicode="'" horiz-adv-x="570" 
d="M167 1078l-97 575h430l-98 -575h-235z" />
    <glyph glyph-name="uni3000" unicode="&#x3000;" horiz-adv-x="2202" 
 />
    <glyph glyph-name="uni205F" unicode="&#x205f;" horiz-adv-x="9907" 
 />
    <glyph glyph-name="uni2001" unicode="&#x2001;" horiz-adv-x="2202" 
 />
    <glyph glyph-name="uni2003" unicode="&#x2003;" horiz-adv-x="2202" 
 />
    <glyph glyph-name="uni2000" unicode="&#x2000;" horiz-adv-x="1101" 
 />
    <glyph glyph-name="uni2002" unicode="&#x2002;" horiz-adv-x="1101" 
 />
    <glyph glyph-name="uni2007" unicode="&#x2007;" horiz-adv-x="1565" 
 />
    <glyph glyph-name="uni2005" unicode="&#x2005;" horiz-adv-x="551" 
 />
    <glyph glyph-name="uni200A" unicode="&#x200a;" horiz-adv-x="315" 
 />
    <glyph glyph-name="uni202F" unicode="&#x202f;" horiz-adv-x="516" 
 />
    <glyph glyph-name="uni2008" unicode="&#x2008;" horiz-adv-x="739" 
 />
    <glyph glyph-name="uni2006" unicode="&#x2006;" horiz-adv-x="367" 
 />
    <glyph glyph-name="uni2009" unicode="&#x2009;" horiz-adv-x="441" 
 />
    <glyph glyph-name="uni2004" unicode="&#x2004;" horiz-adv-x="734" 
 />
    <glyph glyph-name="uni200B" unicode="&#x200b;" 
 />
    <glyph glyph-name="uni200D" unicode="&#x200d;" 
 />
    <glyph glyph-name="uni200C" unicode="&#x200c;" 
 />
    <glyph glyph-name="uni007F" horiz-adv-x="2142" 
 />
    <glyph glyph-name="uni0E3F" unicode="&#xe3f;" horiz-adv-x="1387" 
d="M1000 908c172 0 365 -173 365 -416c0 -255 -214 -492 -537 -492h-22v-225h-334v225h-332v1612h332v226h334v-241c220 -50 370 -218 370 -404c0 -166 -110 -285 -176 -285zM552 1240v-253h102c93 0 163 46 163 129c0 78 -68 124 -160 124h-105zM763 389
c98 0 192 48 192 154c0 94 -68 151 -189 151l-214 1v-306h211z" />
    <glyph glyph-name="uni20BF" unicode="&#x20bf;" horiz-adv-x="1387" 
d="M1365 492c0 -230 -174 -445 -444 -485v-232h-229v225h-96v-225h-229v225h-227v1612h222v226h229v-226h79h17v226h229v-278c159 -73 260 -214 260 -367c0 -166 -110 -285 -176 -285c172 0 365 -173 365 -416zM817 1116c0 78 -68 124 -160 124h-105v-253h102
c93 0 163 46 163 129zM763 389c98 0 192 48 192 154c0 94 -68 151 -189 151l-214 1v-306h211z" />
    <glyph glyph-name="cent" unicode="&#xa2;" horiz-adv-x="1238" 
d="M1173 257c-82 -66 -183 -114 -292 -137v-217h-334v227c-268 72 -482 299 -482 615s214 543 482 615v220l334 1v-211c104 -22 199 -66 276 -125l-184 -287c-51 48 -134 81 -216 81c-164 0 -288 -128 -288 -294c0 -167 124 -293 289 -293c85 0 165 33 213 78z" />
    <glyph glyph-name="currency" unicode="&#xa4;" horiz-adv-x="1339" 
d="M1156 806c0 -88 -27 -171 -75 -240l182 -171l-156 -145l-185 171c-73 -42 -160 -66 -252 -66c-94 0 -183 26 -259 71l-187 -170l-154 148l187 169c-43 67 -68 145 -68 229c0 89 27 173 74 243l-183 172l157 147l183 -173c73 42 159 66 253 66c93 0 180 -24 253 -66
l186 168l157 -148l-184 -168c45 -69 71 -150 71 -237zM673 662c86 0 155 66 155 146c0 88 -85 142 -164 142c-84 0 -150 -63 -150 -144s72 -144 159 -144z" />
    <glyph glyph-name="dollar" unicode="$" horiz-adv-x="1308" 
d="M1252 476c0 -240 -175 -409 -406 -472v-229h-334v213c-211 31 -389 137 -456 285l259 254c67 -99 192 -159 327 -159c91 0 180 33 180 99c0 83 -165 156 -323 226c-204 88 -379 222 -379 465c0 222 169 394 392 455v225h334v-218c170 -38 297 -135 346 -259l-247 -238
c-48 85 -172 122 -249 122c-88 0 -151 -45 -151 -100c0 -74 114 -98 288 -171c252 -106 419 -260 419 -498z" />
    <glyph glyph-name="Euro" unicode="&#x20ac;" horiz-adv-x="1772" 
d="M1098 369c135 0 256 64 360 157l244 -325c-154 -140 -359 -237 -604 -237c-385 0 -748 240 -851 620h-177l19 191h130c-1 10 -1 21 -1 31c0 13 0 26 1 39h-149l19 191h160c102 360 439 614 857 614c208 -3 431 -94 596 -244l-246 -316c-99 90 -230 149 -349 149
c-161 0 -305 -80 -386 -203h589l-18 -191h-638c-1 -14 -2 -28 -2 -42c0 -9 0 -19 1 -28h628l-18 -191h-549c80 -131 229 -215 384 -215z" />
    <glyph glyph-name="florin" unicode="&#x192;" horiz-adv-x="1366" 
d="M1177 1259c-122 0 -191 -25 -251 -258h325v-330h-394l-24 -118c-90 -424 -232 -547 -576 -547h-215v375h147c123 0 197 14 260 290h-329v330h397l17 83c91 437 238 550 585 550h205v-375h-147z" />
    <glyph glyph-name="franc" unicode="&#x20a3;" horiz-adv-x="1227" 
d="M1185 1214h-622v-261h512v-358h-512v-125h353v-270h-353v-202h-423v202h-130v270h130v1146h1045v-402z" />
    <glyph glyph-name="uni20AD" unicode="&#x20ad;" horiz-adv-x="1508" 
d="M1494 0h-519l-408 613v-613h-427v641h-130v330h130v641h427v-601l374 601h492l-403 -641h351v-330h-318z" />
    <glyph glyph-name="lira" unicode="&#x20a4;" horiz-adv-x="1275" 
d="M619 362h586v-362h-1135v362h119c31 60 47 117 51 178h-163v199h136c-7 25 -15 49 -22 75h-114v200h78v20c-1 329 246 594 603 594c167 0 340 -79 435 -225l-248 -208c-26 47 -73 70 -131 70c-157 0 -226 -132 -229 -251h316v-200h-285c7 -25 15 -50 22 -75h263v-199
h-234c-2 -65 -17 -121 -48 -178z" />
    <glyph glyph-name="uni20A6" unicode="&#x20a6;" horiz-adv-x="1733" 
d="M1723 971v-330h-160v-657h-136l-829 803v-788h-428v642h-160v330h160v657h138l826 -800v786h429v-643h160z" />
    <glyph glyph-name="uni20B1" unicode="&#x20b1;" horiz-adv-x="1653" 
d="M1611 1328v-260h-168v-21c0 -10 0 -19 -1 -29h169v-260h-252c-106 -168 -301 -283 -525 -283h-181v-475h-428v758h-183v260h183v50h-183v260h183v284h609c224 0 423 -114 528 -284h249zM834 869c115 -1 196 77 196 176c0 98 -82 172 -196 172h-181v-347z" />
    <glyph glyph-name="uni20BD" unicode="&#x20bd;" horiz-adv-x="1564" 
d="M889 545h-185v-99h407v-270h-407v-176h-428v176h-206v270h206v109h-206v305h206v752h628c328 0 590 -230 590 -530c0 -311 -271 -537 -605 -537zM704 1217v-297l180 -1c130 -1 197 62 197 151c0 73 -67 147 -197 147h-180z" />
    <glyph glyph-name="uni20A8" unicode="&#x20a8;" horiz-adv-x="1415" 
d="M1131 1296c19 -37 34 -76 44 -118h165l-40 -230h-119c-37 -213 -189 -359 -320 -387c-22 -6 -60 -9 -89 -8l515 -555h-501l-626 738v66l384 -1c94 0 172 60 205 147h-604l40 230h546c-40 69 -108 118 -187 118h-404l55 316h1155l-55 -316h-164z" />
    <glyph glyph-name="sterling" unicode="&#xa3;" horiz-adv-x="1270" 
d="M614 362h586v-362h-1130v362h114c37 71 52 138 52 211c0 19 -1 37 -4 55h-155v266h89c-10 43 -16 90 -16 140c-1 329 246 594 603 594c167 0 340 -79 435 -225l-248 -208c-26 47 -73 70 -131 70c-160 0 -229 -137 -229 -258c0 -39 4 -77 12 -113h309v-266h-243
c3 -21 5 -42 5 -63c0 -75 -14 -139 -49 -203z" />
    <glyph glyph-name="uni20B8" unicode="&#x20b8;" horiz-adv-x="1286" 
d="M42 1612h1202v-351h-1202v351zM1244 1167v-352h-390l4 -815h-429l-4 815h-383v352h1202z" />
    <glyph glyph-name="uni20AE" unicode="&#x20ae;" horiz-adv-x="1286" 
d="M1244 1212h-386v-163l220 103v-244l-220 -102v-97l220 103v-244l-220 -103v-465h-429v265l-219 -102v243l219 102v98l-219 -102v243l219 102v363h-387v400h1202v-400z" />
    <glyph glyph-name="uni20A9" unicode="&#x20a9;" horiz-adv-x="2114" 
d="M2084 1612l-213 -641h213v-330h-322l-216 -651h-118l-377 797l-374 -797h-117l-216 651h-314v330h204l-213 641h463l223 -738l330 735h32l330 -733l222 736h463z" />
    <glyph glyph-name="yen" unicode="&#xa5;" horiz-adv-x="1560" 
d="M1490 1612l-362 -665h322v-283h-458v-101h458v-283h-458v-280h-425v280h-439v283h439v101h-439v283h303l-361 665h485l225 -467l224 467h486z" />
    <glyph glyph-name="plus" unicode="+" horiz-adv-x="1343" 
d="M1203 976v-360h-332v-367h-398v367h-333v360h333v366h398v-366h332z" />
    <glyph glyph-name="minus" unicode="&#x2212;" horiz-adv-x="1332" 
d="M140 616v360h1052v-360h-1052z" />
    <glyph glyph-name="multiply" unicode="&#xd7;" horiz-adv-x="1482" 
d="M1342 450l-244 -250l-357 343l-356 -344l-244 248l349 337l-350 337l244 249l357 -343l356 344l244 -250l-348 -336z" />
    <glyph glyph-name="divide" unicode="&#xf7;" horiz-adv-x="1654" 
d="M810 1064c-142 -1 -261 111 -261 246c0 134 120 244 259 244c142 0 263 -115 263 -245c0 -131 -119 -244 -261 -245zM140 603v333h1374v-333h-1374zM809 -28c-140 0 -260 112 -260 247c0 136 123 244 260 244c140 0 262 -114 262 -245c0 -130 -118 -246 -262 -246z" />
    <glyph glyph-name="equal" unicode="=" horiz-adv-x="1354" 
d="M140 892v333h1074v-333h-1074zM140 347v331h1074v-331h-1074z" />
    <glyph glyph-name="notequal" unicode="&#x2260;" horiz-adv-x="1354" 
d="M1214 889h-360l-73 -213h433v-332h-547l-107 -312h-245l107 312h-282v332h396l73 213h-469v333h583l113 330h245l-113 -330h246v-333z" />
    <glyph glyph-name="greater" unicode="&#x3e;" horiz-adv-x="1328" 
d="M155 159v419l422 231l-422 233l-14 418l1047 -641v-20z" />
    <glyph glyph-name="less" unicode="&#x3c;" horiz-adv-x="1328" 
d="M1174 159l-1034 640v20l1048 641l-14 -418l-422 -233l422 -231v-419z" />
    <glyph glyph-name="greaterequal" unicode="&#x2265;" horiz-adv-x="1352" 
d="M154 517v335l422 185l-422 186l-14 335l1048 -513v-16zM1212 85h-1056v270h1056v-270z" />
    <glyph glyph-name="lessequal" unicode="&#x2264;" horiz-adv-x="1352" 
d="M1198 517l-1033 512v16l1047 513l-14 -335l-422 -186l422 -185v-335zM140 85v270h1056v-270h-1056z" />
    <glyph glyph-name="plusminus" unicode="&#xb1;" horiz-adv-x="1238" 
d="M818 1172h280v-323h-280v-295h-398v295h-280v323h280v265h398v-265zM140 148v297h958v-297h-958z" />
    <glyph glyph-name="approxequal" unicode="&#x2248;" horiz-adv-x="1448" 
d="M393 849l-252 78c54 271 231 348 379 348c217 0 292 -168 407 -168c72 0 106 72 128 162l253 -78c-56 -279 -239 -349 -380 -349c-218 0 -290 169 -406 169c-74 0 -107 -72 -129 -162zM393 293l-253 78c54 271 231 349 379 349c218 0 293 -169 407 -169
c72 0 107 72 129 162l252 -78c-56 -278 -239 -348 -380 -348c-218 0 -289 168 -405 168c-74 0 -108 -72 -129 -162z" />
    <glyph glyph-name="asciitilde" unicode="~" horiz-adv-x="1716" 
d="M451 545l-311 96c66 334 285 429 466 429c268 0 360 -207 501 -207c89 0 131 89 159 199l310 -96c-69 -343 -294 -429 -467 -429c-268 0 -357 207 -499 207c-92 0 -132 -88 -159 -199z" />
    <glyph glyph-name="logicalnot" unicode="&#xac;" horiz-adv-x="1557" 
d="M140 1080h1277v-693h-401v314h-876v379z" />
    <glyph glyph-name="asciicircum" unicode="^" horiz-adv-x="1018" 
d="M21 1092l457 584h61l458 -584h-342l-146 213l-147 -213h-341z" />
    <glyph glyph-name="emptyset" unicode="&#x2205;" horiz-adv-x="1592" 
d="M1268 1265c146 -121 239 -296 239 -491c0 -364 -319 -661 -708 -661c-98 0 -192 19 -277 53l-119 -176h-313l213 314c-129 119 -210 284 -210 466c0 363 318 660 706 660c85 0 166 -14 242 -40l144 213h312zM391 770c0 -82 30 -158 79 -220l399 587c-23 4 -46 6 -70 6
c-225 0 -408 -168 -408 -373zM799 399c223 0 405 167 405 371c0 95 -39 182 -103 248l-411 -605c34 -9 71 -14 109 -14z" />
    <glyph glyph-name="infinity" unicode="&#x221e;" horiz-adv-x="2539" 
d="M1858 1412c334 0 611 -265 611 -602c0 -338 -277 -602 -611 -602c-231 0 -442 109 -589 280c-146 -171 -358 -280 -589 -280c-333 0 -610 264 -610 602c0 337 277 602 610 602c231 0 443 -110 589 -280c147 170 359 280 589 280zM684 549c168 0 312 124 412 261
c-101 140 -245 261 -412 261c-134 0 -256 -117 -256 -261c0 -145 126 -261 256 -261zM1855 549c130 0 256 116 256 261c0 144 -122 261 -256 261c-169 0 -313 -123 -412 -261c100 -137 244 -261 412 -261z" />
    <glyph glyph-name="integral" unicode="&#x222b;" horiz-adv-x="1236" 
d="M42 -300v345h97c121 0 195 80 209 171l201 1336c35 236 200 348 470 348h175v-344h-97c-120 0 -193 -80 -207 -172l-201 -1336c-35 -236 -201 -348 -472 -348h-175z" />
    <glyph glyph-name="product" unicode="&#x220f;" horiz-adv-x="1554" 
d="M1512 1950v-357h-204v-1843h-398v1843h-253v-1843h-398v1843h-217v357h1470z" />
    <glyph glyph-name="summation" unicode="&#x2211;" horiz-adv-x="1572" 
d="M1474 1925v-357h-787l458 -741v-3l-458 -742l786 -1v-356l-1452 1v21l672 1079l-672 1078v21h1453z" />
    <glyph glyph-name="radical" unicode="&#x221a;" horiz-adv-x="1216" 
d="M1716 2203v-357h-424l-717 -1921h-23l-531 1384h383l155 -483l491 1377h666z" />
    <glyph glyph-name="uni00B5" unicode="&#xb5;" horiz-adv-x="1464" 
d="M930 1200h404v-649c0 -479 -222 -588 -446 -588c-144 0 -264 48 -354 128v-541h-404v1650h404v-649c0 -133 74 -226 205 -226c122 0 191 65 191 226v649z" />
    <glyph glyph-name="partialdiff" unicode="&#x2202;" horiz-adv-x="1378" 
d="M661 -40c-367 0 -596 249 -596 556c0 315 233 549 530 549c158 0 299 -65 358 -187c-39 249 -209 407 -493 523l315 225c272 -98 538 -429 538 -931c0 -454 -264 -735 -652 -735zM689 307c127 0 216 93 216 211c0 120 -93 216 -218 216c-121 0 -223 -90 -223 -214
c0 -122 99 -213 225 -213z" />
    <glyph glyph-name="percent" unicode="%" horiz-adv-x="1888" 
d="M476 877c-222 0 -406 169 -406 376c0 208 184 378 407 378c222 0 405 -170 405 -377s-184 -377 -406 -377zM211 0l1107 1613h347l-1106 -1613h-348zM476 1127c77 0 139 56 139 126s-63 127 -140 127c-78 0 -141 -57 -141 -127s63 -126 142 -126zM1412 -20
c-222 0 -406 170 -406 377c0 208 184 377 407 377c222 0 405 -169 405 -376s-184 -378 -406 -378zM1412 230c77 0 139 57 139 127c0 69 -63 126 -140 126c-78 0 -141 -57 -141 -126c0 -70 63 -127 142 -127z" />
    <glyph glyph-name="perthousand" unicode="&#x2030;" horiz-adv-x="2751" 
d="M476 877c-222 0 -406 169 -406 376c0 208 184 378 407 378c222 0 405 -170 405 -377s-184 -377 -406 -377zM211 0l1107 1613h347l-1106 -1613h-348zM476 1127c77 0 139 56 139 126s-63 127 -140 127c-78 0 -141 -57 -141 -127s63 -126 142 -126zM1412 -20
c-222 0 -406 170 -406 377c0 208 184 377 407 377c222 0 405 -169 405 -376s-184 -378 -406 -378zM2275 -20c-221 0 -405 170 -405 377c0 208 184 377 406 377s405 -169 405 -376s-184 -378 -406 -378zM1412 230c77 0 139 57 139 127c0 69 -63 126 -140 126
c-78 0 -141 -57 -141 -126c0 -70 63 -127 142 -127zM2275 230c77 0 139 57 139 127c0 69 -62 126 -139 126c-78 0 -141 -57 -141 -126c0 -70 63 -127 141 -127z" />
    <glyph glyph-name="arrowup" unicode="&#x2191;" horiz-adv-x="2148" 
d="M1724 1002l-193 -193l-274 279v-1214h-365v1215l-275 -280l-192 193l649 670z" />
    <glyph glyph-name="uni2197" unicode="&#x2197;" horiz-adv-x="2148" 
d="M841 1404l933 15l-14 -933h-273l3 391l-858 -858l-258 258l858 858l-391 -3v272z" />
    <glyph glyph-name="arrowright" unicode="&#x2192;" horiz-adv-x="2148" 
d="M1303 1423l670 -650l-670 -649l-193 192l280 275h-1215v365h1214l-279 274z" />
    <glyph glyph-name="uni2198" unicode="&#x2198;" horiz-adv-x="2148" 
d="M841 125v273l391 -3l-858 858l258 258l858 -858l-3 391h272l15 -933z" />
    <glyph glyph-name="arrowdown" unicode="&#x2193;" horiz-adv-x="2148" 
d="M1531 737l193 -192l-650 -671l-649 671l192 192l275 -279v1214h365v-1214z" />
    <glyph glyph-name="uni2199" unicode="&#x2199;" horiz-adv-x="2148" 
d="M1799 1280l-858 -859l391 3v-272l-933 -15l14 934h273l-3 -391l858 858z" />
    <glyph glyph-name="arrowleft" unicode="&#x2190;" horiz-adv-x="2148" 
d="M1973 956v-365h-1214l279 -275l-192 -192l-671 649l671 650l192 -193l-279 -274h1214z" />
    <glyph glyph-name="uni2196" unicode="&#x2196;" horiz-adv-x="2148" 
d="M1799 267l-258 -259l-859 859l3 -392h-272l-15 934l934 -15v-272l-392 3z" />
    <glyph glyph-name="arrowboth" unicode="&#x2194;" horiz-adv-x="2148" 
d="M1413 1423l670 -650l-670 -649l-193 192l279 275h-850l279 -275l-192 -192l-671 649l671 650l192 -193l-279 -274h850l-279 274z" />
    <glyph glyph-name="arrowupdn" unicode="&#x2195;" horiz-adv-x="2148" 
d="M1724 435l-650 -671l-649 671l192 192l275 -279v850l-275 -279l-192 193l649 670l650 -670l-193 -193l-274 279v-850l274 279z" />
    <glyph glyph-name="lozenge" unicode="&#x25ca;" horiz-adv-x="1303" 
d="M649 1551l454 -772l-454 -771l-449 771zM649 469l178 310l-178 311l-174 -311z" />
    <glyph glyph-name="at" unicode="@" horiz-adv-x="2417" 
d="M1075 -436c-661 0 -1005 390 -1005 906c0 693 570 1204 1288 1204c666 0 989 -429 989 -882c0 -425 -306 -826 -713 -826c-228 0 -321 153 -325 363c-16 -96 -150 -161 -274 -161c-181 0 -307 143 -307 362c0 265 169 517 416 516c123 0 219 -68 219 -158l56 149h277
l-74 -611c-1 -13 -3 -28 -3 -47c0 -59 17 -123 85 -123c147 0 219 277 219 475c0 390 -266 564 -632 562c-458 -2 -816 -330 -816 -779c0 -350 243 -588 639 -588c79 0 125 11 188 36l104 -335c-84 -32 -161 -63 -331 -63zM1174 453c86 0 148 87 148 181
c0 69 -38 125 -109 125c-88 0 -156 -90 -156 -178c0 -71 46 -128 117 -128z" />
    <glyph glyph-name="ampersand" unicode="&#x26;" horiz-adv-x="1633" 
d="M1591 353l-2 -373c-126 0 -283 54 -444 142c-122 -103 -278 -158 -462 -158c-399 0 -613 263 -613 517c0 183 111 346 246 432c-53 101 -84 200 -84 289c0 239 222 457 516 457c239 0 448 -149 491 -392l-369 -94c-8 98 -81 146 -142 146c-59 0 -123 -45 -123 -134
c0 -153 186 -366 406 -539c17 65 26 134 30 204l394 5c-4 -164 -32 -307 -80 -429c92 -44 174 -71 236 -73zM658 319c56 0 105 12 147 33c-109 89 -212 188 -300 290c-47 -40 -74 -92 -74 -147c0 -103 86 -176 227 -176z" />
    <glyph glyph-name="paragraph" unicode="&#xb6;" horiz-adv-x="1657" 
d="M200 1156c0 281 230 494 534 494h289v-1752h-294v764c-302 2 -529 215 -529 494zM1170 1650h287v-1760h-287v1760z" />
    <glyph glyph-name="section" unicode="&#xa7;" horiz-adv-x="1399" 
d="M1095 550c65 -59 100 -130 100 -228c0 -247 -219 -411 -512 -411c-225 0 -418 98 -483 226l178 242c55 -69 197 -137 337 -137c57 0 105 12 105 50c0 53 -111 92 -230 141c-170 70 -349 177 -349 387c0 99 40 181 109 243c-63 59 -106 134 -106 237
c0 240 235 378 486 378c176 0 365 -74 430 -193l-205 -224c-53 53 -162 90 -244 90c-60 0 -96 -14 -96 -53s99 -63 247 -124c214 -88 337 -192 337 -372c0 -97 -35 -183 -104 -252zM566 834c0 -48 130 -87 262 -139c37 12 55 32 55 63c0 55 -134 104 -244 147
c-48 -10 -73 -34 -73 -71z" />
    <glyph glyph-name="copyright" unicode="&#xa9;" horiz-adv-x="1842" 
d="M921 -90c-475 0 -851 360 -851 813c0 451 374 810 851 810c479 0 851 -366 851 -810c0 -458 -385 -813 -851 -813zM921 101c359 0 653 281 653 621c0 341 -295 622 -653 622c-357 0 -652 -281 -652 -623c0 -340 297 -620 652 -620zM943 247c-295 0 -511 225 -511 482
c0 253 217 480 511 480c122 0 225 -40 311 -104l-170 -243c-42 39 -86 59 -142 59c-125 0 -208 -96 -208 -192c0 -97 83 -195 209 -195c55 0 98 21 140 57l182 -230c-87 -72 -195 -114 -322 -114z" />
    <glyph glyph-name="registered" unicode="&#xae;" horiz-adv-x="1128" 
d="M564 1612c272 0 484 -202 484 -449c0 -254 -218 -451 -484 -451c-270 0 -484 200 -484 451c0 249 213 449 484 449zM564 826c198 0 363 152 363 336c0 185 -165 337 -363 337s-363 -152 -363 -337c0 -184 166 -336 363 -336zM745 1250c0 -57 -36 -106 -82 -125l128 -175
h-140l-125 183v-183h-121v448h172c97 0 168 -66 168 -148zM525 1290v-91l49 -1c26 0 49 18 49 46s-23 46 -49 46h-49z" />
    <glyph glyph-name="trademark" unicode="&#x2122;" horiz-adv-x="1364" 
d="M1258 1618h73v-690h-182v270l-184 -259h-1l-185 260v-271h-181v690h73l294 -402zM51 1442v170h510v-170h-164v-514h-182v514h-164z" />
    <glyph glyph-name="trademark.ss04" horiz-adv-x="1547" 
d="M335 1611v-111h113v-167h-113v-202c0 -8 5 -52 59 -52c17 0 37 4 54 10v-147c-30 -11 -82 -18 -117 -18c-127 0 -184 95 -184 207v202h-77v167h77v111h188zM1275 1519c103 0 202 -53 202 -276v-303h-189v303c0 74 -27 105 -80 105c-62 0 -93 -43 -93 -105v-303h-188v303
c0 74 -28 105 -81 105c-61 0 -92 -43 -92 -105v-303h-188v560h174l7 -45c41 40 97 64 167 64c66 0 129 -22 167 -95c42 58 107 95 194 95z" />
    <glyph glyph-name="trademark.ss05" horiz-adv-x="1534" 
d="M1513 1299v-124h-134v-247h-182v247h-16l-168 -236h-1l-167 236h-17v-247h-182v247h-226v-247h-182v247h-217v124h217v143h-164v170h510v-170h-164v-143h226v319h73l233 -319h121l233 319h73v-319h134z" />
    <glyph glyph-name="degree" unicode="&#xb0;" horiz-adv-x="737" 
d="M368 1084c-163 0 -303 130 -303 282s138 283 303 283s304 -129 304 -283c0 -155 -140 -282 -304 -282zM368 1258c66 0 121 48 121 109c0 59 -56 110 -121 110c-62 0 -120 -50 -120 -111c0 -58 52 -108 120 -108z" />
    <glyph glyph-name="bar" unicode="|" horiz-adv-x="651" 
d="M200 -450v2300h251v-2300h-251z" />
    <glyph glyph-name="brokenbar" unicode="&#xa6;" horiz-adv-x="651" 
d="M200 865v985h251v-985h-251zM200 -450v1000h251v-1000h-251z" />
    <glyph glyph-name="dagger" unicode="&#x2020;" horiz-adv-x="731" 
d="M710 1426v-197h-227v-1229h-234v1229h-228v197h228v224h234v-224h227z" />
    <glyph glyph-name="daggerdbl" unicode="&#x2021;" horiz-adv-x="733" 
d="M712 1229h-227v-812h225v-198h-225v-219h-234v219h-230v198h230v812h-228v197h228v224h234v-224h227v-197z" />
    <glyph glyph-name="estimated" unicode="&#x212e;" horiz-adv-x="1942" 
d="M1001 -32c-485 0 -931 360 -931 834c0 465 431 834 937 834c491 0 865 -347 865 -765c0 -43 -4 -98 -8 -127h-1496v-396c181 -183 418 -261 631 -261c319 0 592 172 667 332h124c-93 -210 -392 -451 -789 -451zM368 856h1226v424c-149 149 -343 237 -587 237
c-245 0 -468 -89 -639 -258v-403z" />
    <glyph glyph-name="uni02BC" unicode="&#x2bc;" horiz-adv-x="477" 
d="M21 1095l75 555h360l-135 -555h-300z" />
    <glyph glyph-name="uni0308" unicode="&#x308;" 
d="M-589 1349c-81 0 -148 62 -148 137c0 74 67 139 148 139c79 0 146 -65 146 -139c0 -75 -67 -137 -146 -137zM-108 1349c-80 0 -146 62 -146 137c0 74 67 139 146 139c81 0 149 -65 149 -139c0 -75 -68 -137 -149 -137z" />
    <glyph glyph-name="uni0307" unicode="&#x307;" 
d="M-330 1347c-94 0 -169 71 -169 157s76 161 169 161s170 -75 170 -160c0 -88 -78 -158 -170 -158z" />
    <glyph glyph-name="gravecomb" unicode="&#x300;" 
d="M-269 1333l-238 337h335l172 -337h-269z" />
    <glyph glyph-name="acutecomb" unicode="&#x301;" 
d="M-238 1333h-269l172 337h335z" />
    <glyph glyph-name="uni030B" unicode="&#x30b;" 
d="M-868 1333l137 337h299l-196 -337h-240zM-483 1333l208 337h335l-289 -337h-254z" />
    <glyph glyph-name="uni030C.alt" 
d="M-350 1280l70 470h280l-120 -470h-230z" />
    <glyph glyph-name="uni0302" unicode="&#x302;" 
d="M-810 1347l311 293h239l315 -293h-307l-127 130l-127 -130h-304z" />
    <glyph glyph-name="uni030C" unicode="&#x30c;" 
d="M-810 1640h304l127 -130l127 130h307l-315 -293h-239z" />
    <glyph glyph-name="uni0306" unicode="&#x306;" 
d="M-343 1341c-184 0 -322 130 -322 301h192c0 -76 56 -134 130 -134s131 58 131 134h192c0 -171 -139 -301 -323 -301z" />
    <glyph glyph-name="uni030A" unicode="&#x30a;" 
d="M-253 1295c-133 0 -243 105 -243 234c0 128 110 234 243 234c131 0 241 -107 241 -234s-110 -234 -241 -234zM-253 1442c49 0 89 38 89 85c0 48 -40 87 -89 87c-50 0 -90 -39 -90 -87c0 -47 40 -85 90 -85z" />
    <glyph glyph-name="tildecomb" unicode="&#x303;" 
d="M-708 1357l-195 60c42 209 178 268 292 268c167 0 225 -129 313 -129c55 0 82 55 99 124l194 -60c-43 -214 -184 -268 -292 -268c-168 0 -223 130 -312 130c-57 0 -83 -56 -99 -125z" />
    <glyph glyph-name="uni0304" unicode="&#x304;" 
d="M-660 1389v201h655v-201h-655z" />
    <glyph glyph-name="uni0312" unicode="&#x312;" 
d="M-307 1812c64 0 108 -30 108 -46c-49 0 -141 -31 -141 -114c0 -25 6 -37 13 -46c65 0 135 -57 135 -134c0 -84 -77 -159 -185 -159c-110 0 -185 82 -185 207c0 143 98 292 255 292z" />
    <glyph glyph-name="uni0326" unicode="&#x326;" 
d="M-453 -618c-64 0 -107 30 -107 46c48 0 140 31 140 114c0 25 -5 37 -12 46c-65 0 -136 57 -136 134c0 84 78 159 186 159c110 0 185 -82 185 -207c0 -143 -98 -292 -256 -292z" />
    <glyph glyph-name="uni0327" unicode="&#x327;" 
d="M-514 -574l-99 231c194 -1 266 34 266 77c0 17 -10 46 -63 46c-13 0 -29 -2 -49 -7l-47 60l168 209h190l-108 -129c9 0 15 1 24 1c90 0 160 -74 160 -170c0 -166 -201 -320 -442 -318z" />
    <glyph glyph-name="uni0328" unicode="&#x328;" 
d="M-107 -548c-71 -15 -135 -22 -193 -22c-209 0 -321 93 -321 249c0 172 138 311 302 355l193 -34c-138 -102 -197 -163 -197 -232c0 -34 17 -65 58 -65c22 0 67 6 119 19z" />
    <glyph glyph-name="uni0335" unicode="&#x335;" 
d="M-891 628v230h876v-230h-876z" />
    <glyph glyph-name="uni0336" unicode="&#x336;" 
d="M-1151 628v230h1577v-230h-1577z" />
    <glyph glyph-name="uni0337" unicode="&#x337;" 
d="M-714 891v310l761 511v-311z" />
    <glyph glyph-name="uni0338" unicode="&#x338;" 
d="M-1222 -112l962 1405h273l-960 -1405h-275z" />
    <glyph glyph-name="uni0338.case" 
d="M-1090 -82l1197 1732h342l-1196 -1732h-343z" />
    <glyph glyph-name="dieresis" unicode="&#xa8;" horiz-adv-x="687" 
d="M98 1349c-81 0 -148 62 -148 137c0 74 67 139 148 139c79 0 146 -65 146 -139c0 -75 -67 -137 -146 -137zM579 1349c-80 0 -146 62 -146 137c0 74 67 139 146 139c81 0 148 -65 148 -139c0 -75 -67 -137 -148 -137z" />
    <glyph glyph-name="dotaccent" unicode="&#x2d9;" horiz-adv-x="661" 
d="M331 1347c-94 0 -169 71 -169 157s76 161 169 161s170 -75 170 -160c0 -88 -78 -158 -170 -158z" />
    <glyph glyph-name="grave" unicode="`" horiz-adv-x="674" 
d="M238 1333l-238 337h335l172 -337h-269z" />
    <glyph glyph-name="acute" unicode="&#xb4;" horiz-adv-x="788" 
d="M254 1333h-269l172 337h335z" />
    <glyph glyph-name="hungarumlaut" unicode="&#x2dd;" horiz-adv-x="681" 
d="M-15 1333l137 337h299l-196 -337h-240zM370 1333l208 337h335l-289 -337h-254z" />
    <glyph glyph-name="circumflex" unicode="&#x2c6;" horiz-adv-x="673" 
d="M-54 1347l311 293h239l315 -293h-307l-127 130l-127 -130h-304z" />
    <glyph glyph-name="caron" unicode="&#x2c7;" horiz-adv-x="673" 
d="M-55 1640h304l127 -130l127 130h307l-315 -293h-239z" />
    <glyph glyph-name="breve" unicode="&#x2d8;" horiz-adv-x="675" 
d="M342 1341c-184 0 -322 130 -322 301h192c0 -76 56 -134 130 -134s131 58 131 134h192c0 -171 -139 -301 -323 -301z" />
    <glyph glyph-name="ring" unicode="&#x2da;" horiz-adv-x="648" 
d="M255 1295c-133 0 -243 105 -243 234c0 128 110 234 243 234c131 0 241 -107 241 -234s-110 -234 -241 -234zM255 1442c49 0 89 38 89 85c0 48 -40 87 -89 87c-50 0 -90 -39 -90 -87c0 -47 40 -85 90 -85z" />
    <glyph glyph-name="tilde" unicode="&#x2dc;" horiz-adv-x="827" 
d="M200 1357l-195 60c42 209 178 268 292 268c167 0 225 -129 313 -129c55 0 82 55 99 124l194 -60c-43 -214 -184 -268 -292 -268c-168 0 -223 130 -312 130c-57 0 -83 -56 -99 -125z" />
    <glyph glyph-name="macron" unicode="&#xaf;" horiz-adv-x="644" 
d="M5 1389v201h655v-201h-655z" />
    <glyph glyph-name="cedilla" unicode="&#xb8;" horiz-adv-x="600" 
d="M141 -574l-99 231c194 -1 266 34 266 77c0 17 -10 46 -63 46c-13 0 -29 -2 -49 -7l-47 60l168 209h190l-108 -129c9 0 15 1 24 1c90 0 160 -74 160 -170c0 -166 -201 -320 -442 -318z" />
    <glyph glyph-name="ogonek" unicode="&#x2db;" horiz-adv-x="665" 
d="M558 -548c-71 -15 -135 -22 -193 -22c-209 0 -321 93 -321 249c0 172 138 311 302 355l193 -34c-138 -102 -197 -163 -197 -232c0 -34 17 -65 58 -65c22 0 67 6 119 19z" />
    </font>
</defs>
</svg>
